<svg xmlns="http://www.w3.org/2000/svg" xmlns:xlink="http://www.w3.org/1999/xlink" preserveAspectRatio="xMidYMid" width="22.156" height="31.03" viewBox="0 0 22.156 31.03">
  <defs>
    <style>
      .cls-1 {
        fill: #282828;
        fill-rule: evenodd;
      }
    </style>
  </defs>
  <path d="M21.070,15.973 C19.901,18.718 18.351,21.238 16.660,23.665 C15.496,25.337 14.255,26.953 13.048,28.594 C12.974,28.695 12.898,28.795 12.794,28.934 C12.947,28.941 13.057,28.950 13.167,28.950 C14.436,28.951 15.706,28.950 16.976,28.951 C17.606,28.952 18.010,29.248 18.120,29.787 C18.222,30.280 17.972,30.704 17.421,30.975 C17.404,30.983 17.394,31.005 17.381,31.021 C13.183,31.021 8.985,31.021 4.787,31.021 C4.725,30.985 4.665,30.946 4.602,30.912 C4.170,30.682 3.948,30.215 4.055,29.756 C4.165,29.282 4.548,28.957 5.033,28.954 C6.376,28.946 7.719,28.950 9.062,28.949 C9.146,28.949 9.230,28.949 9.392,28.949 C9.266,28.787 9.175,28.667 9.082,28.548 C6.711,25.500 4.441,22.376 2.584,18.965 C1.897,17.701 1.306,16.376 0.744,15.047 C-0.271,12.648 -0.219,10.194 0.637,7.772 C2.037,3.811 4.723,1.230 8.743,0.271 C13.212,-0.794 17.852,1.231 20.331,5.217 C21.590,7.241 22.218,9.455 22.154,11.855 C22.116,13.309 21.630,14.658 21.070,15.973 ZM18.642,6.425 C16.482,3.129 13.472,1.587 9.610,2.217 C6.448,2.733 4.235,4.672 2.895,7.624 C2.079,9.420 1.761,11.317 2.218,13.284 C2.548,14.706 3.149,16.022 3.819,17.304 C5.320,20.180 7.156,22.825 9.099,25.397 C9.734,26.237 10.393,27.058 11.071,27.925 C11.204,27.766 11.298,27.665 11.380,27.555 C12.635,25.884 13.926,24.240 15.134,22.534 C16.720,20.295 18.166,17.961 19.240,15.408 C19.752,14.187 20.174,12.936 20.148,11.581 C20.112,9.720 19.656,7.972 18.642,6.425 ZM11.068,16.544 C8.307,16.542 6.045,14.217 6.046,11.381 C6.047,8.518 8.294,6.208 11.083,6.202 C13.848,6.196 16.116,8.513 16.122,11.347 C16.128,14.222 13.868,16.546 11.068,16.544 ZM11.083,8.272 C9.409,8.280 8.061,9.664 8.062,11.373 C8.064,13.095 9.429,14.481 11.117,14.475 C12.767,14.470 14.119,13.052 14.106,11.339 C14.094,9.649 12.728,8.263 11.083,8.272 Z" class="cls-1"/>
</svg>
