<svg xmlns="http://www.w3.org/2000/svg" xmlns:xlink="http://www.w3.org/1999/xlink" preserveAspectRatio="xMidYMid" width="20.59" height="21.906" viewBox="0 0 20.59 21.906">
  <defs>
    <style>
      .cls-1 {
        fill: #ffd800;
        fill-rule: evenodd;
      }
    </style>
  </defs>
  <path d="M20.232,21.549 C19.842,21.940 19.290,22.021 19.000,21.731 L13.845,16.577 C12.445,17.473 10.786,18.000 9.000,18.000 C4.029,18.000 -0.000,13.971 -0.000,9.000 C-0.000,4.029 4.029,-0.000 9.000,-0.000 C13.971,-0.000 18.000,4.029 18.000,9.000 C18.000,11.461 17.010,13.688 15.410,15.313 L20.414,20.317 C20.704,20.607 20.623,21.159 20.232,21.549 ZM9.000,2.000 C5.134,2.000 2.000,5.134 2.000,9.000 C2.000,12.866 5.134,16.000 9.000,16.000 C12.866,16.000 16.000,12.866 16.000,9.000 C16.000,5.134 12.866,2.000 9.000,2.000 Z" class="cls-1"/>
</svg>
