<svg xmlns="http://www.w3.org/2000/svg" xmlns:xlink="http://www.w3.org/1999/xlink" preserveAspectRatio="xMidYMid" width="39" height="48" viewBox="0 0 39 48">
  <defs>
    <style>
      .cls-1 {
        fill: #000;
        fill-rule: evenodd;
      }
    </style>
  </defs>
  <path d="M9.425,37.036 L8.287,38.163 C7.800,38.646 7.800,39.451 8.287,39.934 C8.450,40.256 8.775,40.256 9.100,40.256 C9.425,40.256 9.750,40.256 10.075,39.934 L11.212,38.807 C11.700,38.324 11.700,37.519 11.212,37.036 C10.725,36.553 9.913,36.714 9.425,37.036 ZM6.500,27.698 L4.875,27.698 C4.225,27.698 3.575,28.181 3.575,28.986 C3.575,29.791 4.063,30.274 4.875,30.274 L6.500,30.274 C7.150,30.274 7.800,29.791 7.800,28.986 C7.800,28.181 7.150,27.698 6.500,27.698 ZM19.500,17.072 C20.150,17.072 20.800,16.589 20.800,15.783 L20.800,14.173 C20.800,13.529 20.312,12.885 19.500,12.885 C18.688,12.885 18.200,13.368 18.200,14.173 L18.200,15.783 C18.200,16.589 18.850,17.072 19.500,17.072 ZM10.075,17.715 C9.588,17.232 8.775,17.232 8.287,17.715 C7.800,18.198 7.800,19.004 8.287,19.487 L9.425,20.613 C9.588,20.775 9.913,20.936 10.238,20.936 C10.562,20.936 10.887,20.775 11.050,20.613 C11.537,20.130 11.537,19.326 11.050,18.842 L10.075,17.715 ZM25.188,21.419 L19.825,26.571 C19.013,26.410 18.200,26.571 17.550,27.054 C16.575,28.020 16.575,29.469 17.550,30.435 C18.525,31.401 19.987,31.401 20.962,30.435 C21.613,29.791 21.775,28.986 21.613,28.181 L26.975,23.028 C27.463,22.545 27.463,21.741 26.975,21.258 C26.487,20.936 25.675,20.936 25.188,21.419 ZM20.800,9.504 L20.800,8.538 C22.588,8.055 24.050,6.284 24.050,4.352 C23.887,2.098 21.938,0.005 19.500,0.005 C17.062,0.005 15.113,1.937 15.113,4.352 C15.113,6.284 16.413,8.055 18.363,8.538 L18.363,9.504 C8.125,10.148 0.000,18.521 0.000,28.664 C0.000,39.290 8.775,47.985 19.500,47.985 C30.225,47.985 39.000,39.290 39.000,28.664 C39.000,18.521 30.875,10.148 20.800,9.504 ZM17.550,4.513 C17.550,3.386 18.363,2.581 19.500,2.581 C20.637,2.581 21.450,3.386 21.450,4.513 C21.450,5.479 20.637,6.445 19.500,6.445 C18.363,6.445 17.550,5.479 17.550,4.513 ZM19.500,45.569 C10.075,45.569 2.437,38.002 2.437,28.664 C2.437,19.326 10.075,11.919 19.500,11.919 C28.925,11.919 36.563,19.487 36.563,28.825 C36.563,38.163 28.925,45.569 19.500,45.569 ZM19.500,40.578 C18.850,40.578 18.200,41.061 18.200,41.867 L18.200,43.476 C18.200,44.120 18.688,44.765 19.500,44.765 C20.312,44.765 20.800,44.282 20.800,43.476 L20.800,41.867 C20.800,41.061 20.150,40.578 19.500,40.578 ZM34.125,27.698 L32.500,27.698 C31.850,27.698 31.200,28.181 31.200,28.986 C31.200,29.791 31.688,30.274 32.500,30.274 L34.125,30.274 C34.775,30.274 35.425,29.791 35.425,28.986 C35.425,28.181 34.775,27.698 34.125,27.698 ZM28.925,17.715 L27.788,18.842 C27.300,19.326 27.300,20.130 27.788,20.613 C27.950,20.775 28.275,20.936 28.600,20.936 C28.925,20.936 29.250,20.775 29.412,20.613 L30.550,19.487 C31.038,19.004 31.038,18.198 30.550,17.715 C30.225,17.232 29.412,17.232 28.925,17.715 ZM29.575,37.036 C29.087,36.553 28.275,36.553 27.788,37.036 C27.300,37.519 27.300,38.324 27.788,38.807 L28.925,39.934 C29.250,40.256 29.575,40.256 29.900,40.256 C30.225,40.256 30.550,40.095 30.713,39.934 C31.200,39.451 31.200,38.646 30.713,38.163 L29.575,37.036 Z" class="cls-1"/>
</svg>
