<svg xmlns="http://www.w3.org/2000/svg" xmlns:xlink="http://www.w3.org/1999/xlink" preserveAspectRatio="xMidYMid" width="55" height="55" viewBox="0 0 55 55">
  <defs>
    <style>
      .cls-1 {
        fill: #000;
        fill-rule: evenodd;
      }
    </style>
  </defs>
  <path d="M54.159,48.233 C53.700,49.130 53.177,49.211 52.454,48.489 C51.149,47.186 49.847,45.880 48.542,44.577 C48.410,44.445 48.264,44.325 48.199,44.267 C46.861,45.604 45.575,46.889 44.148,48.316 C44.268,48.384 44.472,48.452 44.609,48.587 C45.909,49.869 47.199,51.162 48.489,52.454 C49.211,53.177 49.129,53.701 48.233,54.159 C47.693,54.435 47.158,54.720 46.621,55.000 C46.156,55.000 45.690,55.000 45.225,55.000 C44.470,54.875 43.706,54.785 42.961,54.617 C38.912,53.705 36.544,51.113 35.702,47.123 C35.417,45.768 35.374,44.360 35.265,42.972 C35.237,42.607 35.149,42.341 34.889,42.084 C33.222,40.435 31.568,38.773 29.911,37.115 C29.786,36.990 29.668,36.858 29.526,36.708 C29.936,36.331 30.325,35.972 30.810,35.525 C31.184,35.933 31.579,36.394 32.005,36.824 C33.403,38.235 34.794,39.655 36.227,41.031 C36.747,41.530 36.981,42.045 36.951,42.773 C36.884,44.405 37.042,46.024 37.470,47.609 C38.316,50.741 40.382,52.524 43.545,53.061 C44.318,53.193 45.107,53.238 45.891,53.284 C46.132,53.298 46.381,53.181 46.721,53.101 C46.512,52.877 46.396,52.745 46.272,52.621 C45.033,51.380 43.791,50.141 42.555,48.897 C41.972,48.311 41.973,47.936 42.557,47.350 C44.150,45.753 45.745,44.158 47.341,42.565 C47.944,41.964 48.369,41.996 48.977,42.606 C50.314,43.947 51.669,45.269 53.088,46.670 C53.165,46.424 53.287,46.218 53.286,46.013 C53.278,44.391 53.067,42.800 52.386,41.309 C51.279,38.885 49.236,37.703 46.733,37.286 C45.295,37.047 43.816,37.064 42.359,36.925 C42.029,36.893 41.632,36.777 41.407,36.555 C38.642,33.829 35.902,31.075 33.157,28.327 C33.095,28.266 33.043,28.195 32.972,28.112 C33.363,27.723 33.739,27.351 34.163,26.931 C35.115,27.891 36.055,28.845 37.001,29.793 C38.682,31.479 40.372,33.155 42.044,34.849 C42.328,35.137 42.613,35.264 43.025,35.262 C44.821,35.255 46.596,35.446 48.313,36.006 C52.083,37.236 54.141,39.898 54.772,43.748 C54.853,44.239 54.924,44.732 55.000,45.225 C55.000,45.690 55.000,46.156 55.000,46.621 C54.719,47.158 54.435,47.694 54.159,48.233 ZM50.233,10.293 C48.949,10.079 48.077,10.629 47.177,11.543 C41.655,17.155 36.066,22.701 30.493,28.263 C30.332,28.423 30.102,28.515 29.905,28.638 C29.912,28.734 29.919,28.830 29.926,28.926 C30.131,29.069 30.362,29.185 30.538,29.357 C31.053,29.864 31.055,30.277 30.551,30.788 C29.810,31.538 29.056,32.274 28.260,33.063 C28.497,33.309 28.710,33.517 28.907,33.738 C29.303,34.182 29.298,34.574 28.898,35.020 C28.802,35.126 28.697,35.224 28.596,35.325 C22.244,41.677 15.893,48.029 9.538,54.378 C9.313,54.603 9.053,54.793 8.809,55.000 C8.092,55.000 7.376,55.000 6.660,55.000 C6.416,54.795 6.155,54.605 5.930,54.380 C4.269,52.729 2.612,51.074 0.963,49.412 C0.625,49.071 0.320,48.698 -0.000,48.340 C-0.000,47.624 -0.000,46.908 -0.000,46.192 C0.194,45.959 0.371,45.711 0.584,45.498 C6.921,39.155 13.261,32.816 19.601,26.476 C20.515,25.562 20.737,25.562 21.644,26.468 C21.718,26.542 21.801,26.606 21.946,26.731 C22.606,26.063 23.254,25.405 23.906,24.750 C24.814,23.838 25.026,23.841 25.948,24.756 C26.022,24.830 26.106,24.892 26.216,24.985 C26.372,24.841 26.517,24.715 26.653,24.579 C32.525,18.708 38.394,12.833 44.275,6.971 C44.595,6.652 44.746,6.341 44.712,5.894 C44.677,5.431 44.718,4.963 44.700,4.498 C44.680,3.986 44.908,3.672 45.363,3.447 C47.575,2.355 49.777,1.245 51.982,0.140 C52.061,0.101 52.132,0.047 52.207,0.000 C52.350,0.000 52.493,0.000 52.637,0.000 C53.424,0.788 54.212,1.576 55.000,2.363 C55.000,2.506 55.000,2.650 55.000,2.793 C53.889,4.992 52.757,7.182 51.679,9.397 C51.363,10.047 50.966,10.415 50.233,10.293 ZM20.571,27.913 C20.492,27.982 20.395,28.059 20.308,28.146 C14.206,34.247 8.105,40.348 2.006,46.451 C1.550,46.907 1.561,47.633 2.027,48.101 C3.607,49.686 5.190,51.268 6.773,52.849 C7.427,53.502 8.042,53.503 8.690,52.855 C14.703,46.842 20.716,40.830 26.728,34.816 C26.863,34.681 26.988,34.536 27.086,34.430 C24.905,32.248 22.759,30.101 20.571,27.913 ZM24.899,26.297 C24.364,26.820 23.784,27.389 23.245,27.917 C24.516,29.196 25.805,30.493 27.030,31.725 C27.589,31.162 28.170,30.577 28.664,30.080 C27.424,28.834 26.134,27.538 24.899,26.297 ZM52.649,2.272 C52.421,2.016 52.233,1.862 51.839,2.070 C50.449,2.805 49.063,3.566 47.613,4.164 C46.611,4.578 46.194,5.152 46.385,6.207 C46.515,6.922 46.199,7.438 45.686,7.948 C39.747,13.855 33.831,19.784 27.902,25.700 C27.742,25.859 27.493,25.929 27.276,26.045 C27.902,26.676 28.326,27.104 28.879,27.661 C29.043,27.439 29.150,27.245 29.300,27.095 C34.979,21.409 40.686,15.751 46.322,10.023 C47.326,9.002 48.310,8.343 49.763,8.609 C50.073,8.666 50.245,8.526 50.384,8.242 C51.217,6.540 52.047,4.836 52.929,3.160 C53.178,2.688 52.877,2.528 52.649,2.272 ZM23.537,35.226 C18.553,40.212 13.570,45.197 8.580,50.175 C8.351,50.404 8.057,50.569 7.904,50.681 C7.138,50.685 6.715,50.042 6.985,49.509 C7.086,49.308 7.257,49.136 7.420,48.974 C12.389,44.000 17.361,39.029 22.333,34.058 C22.459,33.931 22.581,33.794 22.727,33.695 C23.106,33.439 23.481,33.480 23.797,33.800 C24.098,34.104 24.128,34.467 23.893,34.828 C23.797,34.976 23.663,35.100 23.537,35.226 ZM9.700,43.913 C8.435,45.178 7.168,46.442 5.906,47.710 C5.577,48.040 5.225,48.243 4.761,47.994 C4.330,47.763 4.183,47.259 4.441,46.846 C4.543,46.681 4.691,46.543 4.830,46.405 C9.813,41.419 14.798,36.434 19.784,31.451 C19.922,31.313 20.063,31.166 20.230,31.071 C20.770,30.761 21.452,31.163 21.467,31.959 C21.356,32.111 21.196,32.407 20.968,32.636 C17.217,36.400 13.458,40.156 9.700,43.913 ZM23.973,19.151 C22.167,17.338 20.360,15.526 18.540,13.726 C18.196,13.386 18.045,13.022 18.057,12.537 C18.100,10.815 17.984,9.108 17.539,7.432 C16.706,4.296 14.655,2.499 11.497,1.942 C10.708,1.803 9.899,1.766 9.097,1.716 C8.867,1.702 8.630,1.806 8.270,1.883 C8.484,2.116 8.604,2.257 8.734,2.387 C9.973,3.629 11.215,4.867 12.453,6.110 C13.014,6.675 13.021,7.066 12.470,7.620 C10.854,9.243 9.234,10.863 7.611,12.480 C7.074,13.014 6.674,13.013 6.139,12.481 C4.907,11.258 3.683,10.027 2.454,8.801 C2.305,8.651 2.150,8.509 1.927,8.297 C1.837,8.565 1.715,8.758 1.716,8.950 C1.723,10.756 1.965,12.519 2.839,14.136 C3.997,16.282 5.937,17.323 8.230,17.706 C9.685,17.949 11.182,17.936 12.656,18.077 C12.988,18.109 13.389,18.218 13.615,18.439 C15.493,20.279 17.339,22.154 19.193,24.020 C19.280,24.107 19.356,24.203 19.448,24.308 C19.045,24.689 18.660,25.052 18.216,25.471 C17.029,24.269 15.826,23.047 14.619,21.828 C13.964,21.167 13.407,20.287 12.614,19.920 C11.830,19.556 10.803,19.729 9.885,19.639 C8.219,19.475 6.601,19.111 5.100,18.343 C2.200,16.860 0.740,14.380 0.228,11.253 C0.147,10.761 0.076,10.268 -0.000,9.776 C-0.000,9.310 -0.000,8.844 -0.000,8.379 C0.295,7.809 0.589,7.239 0.885,6.670 C1.273,5.925 1.890,5.828 2.474,6.416 C3.796,7.748 5.119,9.079 6.443,10.409 C6.577,10.544 6.721,10.668 6.783,10.725 C8.118,9.386 9.410,8.090 10.800,6.696 C10.661,6.592 10.440,6.464 10.263,6.289 C8.980,5.019 7.704,3.742 6.431,2.462 C5.818,1.846 5.909,1.280 6.671,0.885 C7.240,0.590 7.810,0.295 8.379,0.000 C8.844,0.000 9.310,0.000 9.775,0.000 C10.531,0.125 11.294,0.214 12.040,0.382 C16.090,1.294 18.454,3.890 19.297,7.877 C19.583,9.232 19.625,10.641 19.736,12.028 C19.765,12.391 19.851,12.659 20.111,12.918 C22.625,15.415 25.128,17.924 27.633,20.430 C27.770,20.567 27.901,20.712 28.050,20.869 C27.642,21.253 27.256,21.616 26.810,22.036 C25.877,21.086 24.931,20.113 23.973,19.151 Z" class="cls-1"/>
</svg>
