<svg xmlns="http://www.w3.org/2000/svg" xmlns:xlink="http://www.w3.org/1999/xlink" preserveAspectRatio="xMidYMid" width="64.625" height="52.97" viewBox="0 0 64.625 52.97">
  <defs>
    <style>
      .cls-1 {
        fill: #000;
        fill-rule: evenodd;
      }
    </style>
  </defs>
  <path d="M63.867,33.996 C63.248,35.074 62.355,35.683 61.032,35.637 C59.231,35.575 57.427,35.622 55.589,35.622 C55.589,34.942 55.589,34.319 55.589,33.624 C56.171,33.624 56.732,33.624 57.294,33.624 C58.618,33.624 59.943,33.599 61.266,33.636 C61.906,33.653 62.327,33.364 62.421,32.795 C62.559,31.968 62.573,31.117 62.596,30.275 C62.600,30.149 62.390,29.979 62.242,29.893 C60.442,28.844 58.641,27.796 56.822,26.783 C56.621,26.671 56.253,26.684 56.043,26.794 C54.347,27.692 52.663,27.721 50.995,26.767 C50.655,26.573 50.434,26.637 50.143,26.816 C48.782,27.652 47.411,28.473 45.970,29.344 C45.630,28.779 45.307,28.244 44.950,27.652 C46.335,26.811 47.696,25.983 49.104,25.127 C49.003,24.947 48.917,24.787 48.825,24.632 C47.338,22.138 47.097,19.483 47.929,16.739 C48.640,14.394 50.449,13.457 52.718,13.297 C53.569,13.237 54.452,13.275 55.287,13.438 C57.738,13.916 59.106,15.556 59.439,18.138 C59.761,20.630 59.354,22.940 57.912,25.092 C58.671,25.532 59.391,25.958 60.118,26.369 C61.616,27.215 63.119,28.053 64.620,28.894 C64.620,29.997 64.620,31.101 64.620,32.204 C64.373,32.804 64.187,33.439 63.867,33.996 ZM57.346,17.429 C57.105,16.257 56.339,15.543 55.192,15.416 C54.139,15.299 53.053,15.275 52.002,15.392 C50.513,15.558 49.799,16.370 49.585,17.879 C49.505,18.444 49.473,19.015 49.419,19.584 C49.379,19.596 49.339,19.608 49.298,19.621 C49.520,20.689 49.651,21.788 49.986,22.819 C50.388,24.058 51.222,24.983 52.527,25.344 C54.458,25.879 56.239,24.917 57.041,22.868 C57.733,21.098 57.723,19.265 57.346,17.429 ZM39.181,26.947 C39.527,27.398 39.866,27.867 40.125,28.372 C40.705,29.506 41.604,30.215 42.768,30.670 C44.783,31.458 46.795,32.257 48.776,33.128 C49.770,33.565 50.752,34.086 51.636,34.717 C54.028,36.425 55.198,38.899 55.362,41.767 C55.541,44.896 55.474,48.039 55.514,51.176 C55.522,51.770 55.527,52.363 55.533,52.957 C54.860,52.957 54.187,52.957 53.514,52.957 C53.513,49.480 53.563,46.002 53.497,42.527 C53.431,39.057 51.824,36.561 48.596,35.217 C46.560,34.370 44.513,33.552 42.477,32.704 C41.839,32.438 41.222,32.118 40.532,31.793 C39.361,32.981 38.164,34.168 37.001,35.388 C36.667,35.739 36.410,35.789 35.981,35.555 C34.910,34.971 33.817,34.427 32.713,33.912 C32.490,33.808 32.137,33.809 31.913,33.914 C30.790,34.440 29.682,35.000 28.587,35.583 C28.209,35.784 27.973,35.759 27.666,35.438 C26.502,34.217 25.304,33.027 24.097,31.804 C23.258,32.190 22.455,32.593 21.627,32.935 C20.035,33.592 18.428,34.212 16.829,34.852 C16.557,34.962 16.295,35.098 16.024,35.212 C12.747,36.591 11.167,39.137 11.116,42.654 C11.067,46.087 11.108,49.522 11.110,52.957 C10.437,52.957 9.764,52.957 9.091,52.957 C9.098,49.860 9.069,46.763 9.129,43.668 C9.153,42.468 9.278,41.250 9.532,40.078 C10.119,37.364 11.646,35.275 14.100,34.001 C15.681,33.180 17.363,32.556 19.001,31.846 C19.213,31.754 19.432,31.678 19.647,31.594 C23.273,30.188 23.270,30.185 25.444,26.943 C25.607,26.700 25.876,26.529 26.096,26.325 C26.154,26.359 26.211,26.392 26.269,26.426 C26.269,25.627 26.275,24.829 26.262,24.030 C26.260,23.919 26.183,23.789 26.103,23.703 C24.064,21.525 23.055,18.835 22.541,15.972 C21.980,12.845 21.950,9.668 22.694,6.567 C23.600,2.793 26.454,0.497 30.384,0.133 C30.609,0.112 30.828,0.041 31.050,-0.007 C31.891,-0.007 32.733,-0.007 33.574,-0.007 C34.168,0.102 34.768,0.190 35.356,0.324 C39.356,1.238 41.659,3.641 42.199,7.935 C42.665,11.647 42.644,15.380 41.277,18.973 C40.625,20.690 39.822,22.304 38.567,23.663 C38.452,23.788 38.365,23.990 38.360,24.159 C38.338,24.900 38.350,25.641 38.350,26.197 C38.706,26.512 38.988,26.695 39.181,26.947 ZM40.273,7.975 C39.933,5.044 38.409,3.122 35.841,2.422 C34.137,1.958 32.399,1.924 30.653,2.086 C29.474,2.196 28.333,2.450 27.287,3.041 C25.517,4.040 24.137,6.594 24.417,8.459 C25.184,8.076 25.942,7.727 26.670,7.322 C27.060,7.105 27.394,7.111 27.796,7.275 C30.340,8.317 32.929,9.257 35.428,10.401 C36.754,11.008 37.840,11.045 39.095,10.264 C40.400,9.453 40.455,9.543 40.273,7.975 ZM40.388,11.803 C39.515,12.239 38.719,12.610 37.951,13.034 C37.561,13.251 37.230,13.245 36.827,13.080 C33.852,11.863 30.872,10.658 27.884,9.474 C27.605,9.364 27.212,9.319 26.950,9.430 C26.139,9.773 25.358,10.192 24.584,10.618 C24.420,10.708 24.233,10.953 24.235,11.125 C24.248,12.437 24.183,13.766 24.376,15.053 C24.730,17.414 25.449,19.667 26.882,21.629 C27.362,22.286 27.961,22.724 28.750,22.941 C30.623,23.459 32.509,23.550 34.429,23.276 C36.069,23.043 37.421,22.441 38.266,20.877 C39.778,18.078 40.574,15.127 40.388,11.803 ZM28.292,24.870 C28.292,25.579 28.292,26.183 28.292,26.811 C28.815,26.909 29.305,27.011 29.798,27.089 C30.687,27.229 31.585,27.496 32.466,27.451 C33.651,27.389 34.825,27.089 35.999,26.868 C36.136,26.842 36.342,26.667 36.350,26.550 C36.388,26.016 36.367,25.478 36.367,24.863 C33.631,25.593 30.997,25.595 28.292,24.870 ZM38.146,28.982 C38.010,28.797 37.667,28.643 37.441,28.668 C36.589,28.764 35.748,28.968 34.896,29.080 C33.845,29.217 32.775,29.456 31.734,29.375 C30.151,29.252 28.586,28.891 26.893,28.611 C26.808,28.675 26.623,28.764 26.513,28.911 C26.248,29.265 26.033,29.657 25.768,30.012 C25.548,30.306 25.576,30.512 25.841,30.769 C26.613,31.517 27.371,32.281 28.112,33.062 C28.371,33.335 28.583,33.383 28.924,33.201 C29.905,32.674 30.898,32.167 31.907,31.698 C32.130,31.595 32.480,31.594 32.702,31.697 C33.713,32.163 34.705,32.670 35.689,33.193 C36.021,33.369 36.242,33.361 36.503,33.072 C36.956,32.572 37.447,32.107 37.923,31.628 C39.153,30.386 39.165,30.377 38.146,28.982 ZM18.657,29.347 C17.250,28.494 15.897,27.686 14.558,26.856 C14.205,26.637 13.938,26.599 13.535,26.820 C11.900,27.718 10.234,27.698 8.605,26.782 C8.286,26.602 8.060,26.598 7.748,26.782 C5.987,27.816 4.218,28.838 2.439,29.840 C2.095,30.034 1.963,30.258 1.999,30.645 C2.063,31.317 2.028,32.006 2.157,32.663 C2.305,33.416 2.651,33.624 3.410,33.624 C5.071,33.626 6.733,33.625 8.394,33.625 C8.599,33.625 8.804,33.625 9.040,33.625 C9.040,34.297 9.040,34.906 9.040,35.522 C9.016,35.543 8.986,35.596 8.955,35.596 C6.937,35.605 4.917,35.646 2.900,35.598 C2.020,35.577 1.367,34.987 0.933,34.262 C0.550,33.621 0.308,32.893 0.004,32.204 C0.004,31.101 0.004,29.997 0.004,28.894 C0.558,28.600 1.119,28.320 1.664,28.010 C3.146,27.166 4.621,26.310 6.098,25.457 C6.293,25.344 6.482,25.221 6.707,25.083 C5.508,23.315 4.986,21.404 5.088,19.332 C5.122,18.637 5.200,17.932 5.365,17.258 C5.971,14.786 7.541,13.521 10.346,13.297 C11.194,13.230 12.079,13.283 12.914,13.447 C15.350,13.927 16.734,15.564 17.032,18.176 C17.350,20.958 17.020,22.501 15.515,25.122 C16.883,25.955 18.255,26.791 19.664,27.649 C19.319,28.230 19.001,28.766 18.657,29.347 ZM15.019,17.745 C14.805,16.366 14.052,15.547 12.674,15.400 C11.620,15.289 10.539,15.308 9.482,15.404 C8.449,15.498 7.629,16.077 7.364,17.131 C6.841,19.211 6.832,21.293 7.774,23.274 C8.421,24.636 9.496,25.446 11.045,25.473 C12.624,25.501 13.703,24.691 14.420,23.335 C15.018,22.203 15.187,20.972 15.213,19.702 C15.150,19.049 15.120,18.392 15.019,17.745 ZM19.187,52.957 C18.514,52.957 17.841,52.957 17.168,52.957 C17.168,50.269 17.168,47.582 17.168,44.861 C17.869,44.861 18.487,44.861 19.187,44.861 C19.187,47.582 19.187,50.269 19.187,52.957 ZM33.252,38.627 C32.660,38.627 32.042,38.627 31.350,38.627 C31.350,37.998 31.350,37.391 31.350,36.730 C31.964,36.730 32.581,36.730 33.252,36.730 C33.252,37.328 33.252,37.951 33.252,38.627 ZM33.255,42.704 C32.652,42.704 32.035,42.704 31.368,42.704 C31.368,42.096 31.368,41.473 31.368,40.778 C32.004,40.778 32.606,40.778 33.255,40.778 C33.255,41.411 33.255,42.033 33.255,42.704 ZM47.456,52.957 C46.783,52.957 46.110,52.957 45.437,52.957 C45.437,50.269 45.437,47.582 45.437,44.861 C46.138,44.861 46.756,44.861 47.456,44.861 C47.456,47.582 47.456,50.269 47.456,52.957 Z" class="cls-1"/>
</svg>
