<svg xmlns="http://www.w3.org/2000/svg" xmlns:xlink="http://www.w3.org/1999/xlink" preserveAspectRatio="xMidYMid" width="43" height="54" viewBox="0 0 43 54">
  <defs>
    <style>
      .cls-1 {
        fill: #000;
        fill-rule: evenodd;
      }
    </style>
  </defs>
  <path d="M0.000,54.000 C0.000,36.000 0.000,18.000 0.000,-0.000 C14.333,-0.000 28.667,-0.000 43.000,-0.000 C43.000,18.000 43.000,36.000 43.000,54.000 C28.667,54.000 14.333,54.000 0.000,54.000 ZM1.739,52.295 C2.894,52.295 4.012,52.295 5.196,52.295 C5.196,51.729 5.196,51.195 5.196,50.684 C5.791,50.684 6.317,50.684 6.890,50.684 C6.890,51.248 6.890,51.768 6.890,52.297 C16.655,52.297 26.372,52.297 36.153,52.297 C36.153,51.733 36.153,51.200 36.153,50.682 C36.746,50.682 37.273,50.682 37.844,50.682 C37.844,51.244 37.844,51.765 37.844,52.296 C39.009,52.296 40.126,52.296 41.268,52.296 C41.268,38.232 41.268,24.200 41.268,10.139 C28.083,10.139 14.927,10.139 1.739,10.139 C1.739,24.223 1.739,38.256 1.739,52.295 ZM17.194,1.706 C12.004,1.706 6.875,1.706 1.735,1.706 C1.735,3.962 1.735,6.183 1.735,8.409 C6.908,8.409 12.049,8.409 17.194,8.409 C17.194,6.155 17.194,3.947 17.194,1.706 ZM41.274,1.705 C33.791,1.705 26.370,1.705 18.934,1.705 C18.934,3.960 18.934,6.181 18.934,8.412 C26.399,8.412 33.833,8.412 41.274,8.412 C41.274,6.160 41.274,3.952 41.274,1.705 ZM39.516,5.864 C33.229,5.864 26.971,5.864 20.684,5.864 C20.684,5.321 20.684,4.804 20.684,4.261 C26.971,4.261 33.229,4.261 39.516,4.261 C39.516,4.805 39.516,5.321 39.516,5.864 ZM6.827,5.855 C6.301,5.855 5.775,5.855 5.212,5.855 C5.212,5.338 5.212,4.823 5.212,4.253 C5.766,4.253 6.279,4.253 6.827,4.253 C6.827,4.788 6.827,5.304 6.827,5.855 ZM10.261,5.867 C9.728,5.867 9.215,5.867 8.659,5.867 C8.659,5.352 8.659,4.836 8.659,4.277 C9.164,4.277 9.690,4.277 10.261,4.277 C10.261,4.772 10.261,5.288 10.261,5.867 ZM13.713,5.861 C13.169,5.861 12.644,5.861 12.080,5.861 C12.080,5.301 12.080,4.798 12.080,4.265 C12.631,4.265 13.156,4.265 13.713,4.265 C13.713,4.799 13.713,5.314 13.713,5.861 ZM21.448,46.391 C12.566,46.346 5.143,39.028 5.178,30.351 C5.212,21.585 12.671,14.324 21.604,14.361 C30.426,14.398 37.847,21.735 37.824,30.398 C37.801,39.125 30.315,46.436 21.448,46.391 ZM21.454,16.015 C13.266,16.030 6.857,22.346 6.863,30.392 C6.870,38.474 13.315,44.747 21.598,44.735 C29.701,44.722 36.153,38.365 36.136,30.409 C36.119,22.288 29.705,16.000 21.454,16.015 ZM20.917,43.004 C14.674,42.731 9.320,37.749 8.698,31.635 C8.000,24.773 13.207,18.531 20.224,17.819 C20.669,17.773 21.115,17.746 21.561,17.711 C26.666,17.750 31.559,21.039 33.394,25.690 C33.629,26.285 33.542,26.571 32.989,26.942 C32.412,27.328 31.815,27.687 31.255,28.094 C31.100,28.207 30.963,28.449 30.959,28.635 C30.931,29.795 30.930,30.955 30.957,32.115 C30.961,32.300 31.102,32.541 31.257,32.654 C31.817,33.062 32.412,33.422 32.989,33.808 C33.541,34.177 33.629,34.465 33.392,35.060 C31.438,39.953 26.278,43.239 20.917,43.004 ZM29.844,33.737 C29.422,33.478 29.242,33.139 29.248,32.646 C29.268,31.136 29.269,29.624 29.248,28.113 C29.240,27.597 29.439,27.256 29.880,26.989 C30.471,26.633 31.036,26.236 31.602,25.863 C29.835,21.664 25.052,18.506 19.191,19.604 C13.737,20.626 10.024,25.440 10.316,31.136 C10.593,36.536 14.911,40.868 20.568,41.327 C26.354,41.797 30.336,38.160 31.581,34.867 C31.007,34.492 30.435,34.099 29.844,33.737 ZM13.726,30.317 C13.183,30.317 12.642,30.317 12.101,30.317 C11.972,25.620 16.332,21.081 21.464,21.143 C21.464,21.688 21.464,22.192 21.464,22.740 C19.362,22.814 17.500,23.458 15.994,24.926 C14.484,26.399 13.799,28.214 13.726,30.317 ZM32.725,29.593 C33.289,29.593 33.828,29.593 34.356,29.593 C34.356,30.141 34.356,30.644 34.356,31.175 C33.804,31.175 33.278,31.175 32.725,31.175 C32.725,30.635 32.725,30.119 32.725,29.593 Z" class="cls-1"/>
</svg>
