<svg xmlns="http://www.w3.org/2000/svg" xmlns:xlink="http://www.w3.org/1999/xlink" preserveAspectRatio="xMidYMid" width="61.719" height="61.72" viewBox="0 0 61.719 61.72">
  <defs>
    <style>
      .cls-1 {
        fill: #000;
        fill-rule: evenodd;
      }
    </style>
  </defs>
  <path d="M60.767,13.390 C59.607,13.500 58.950,14.196 58.950,15.322 C58.951,16.470 59.580,17.162 60.735,17.286 C61.051,17.320 61.367,17.356 61.680,17.391 C61.540,19.565 60.266,22.686 58.688,24.694 C57.666,24.026 56.573,23.601 55.599,24.594 C54.650,25.562 55.058,26.636 55.738,27.659 C53.556,29.302 51.149,30.270 48.429,30.691 C48.311,29.334 48.221,27.921 46.373,27.922 C44.527,27.923 44.432,29.329 44.324,30.691 C41.618,30.278 39.224,29.308 37.024,27.678 C37.663,26.635 38.151,25.505 37.068,24.515 C36.099,23.630 35.044,24.037 34.052,24.704 C32.416,22.527 31.451,20.132 31.024,17.419 C31.332,17.376 31.638,17.321 31.947,17.292 C33.124,17.181 33.785,16.507 33.800,15.390 C33.815,14.216 33.180,13.518 31.988,13.392 C31.673,13.360 31.360,13.316 31.024,13.274 C31.438,10.572 32.407,8.177 34.038,5.986 C35.073,6.621 36.179,7.106 37.169,6.063 C38.099,5.082 37.679,4.013 37.006,3.022 C39.197,1.368 41.598,0.413 44.301,-0.012 C44.344,0.308 44.394,0.619 44.426,0.933 C44.547,2.131 45.238,2.774 46.405,2.765 C47.529,2.756 48.212,2.102 48.324,0.932 C48.353,0.635 48.391,0.338 48.430,-0.006 C51.136,0.390 53.532,1.381 55.736,3.005 C55.064,4.057 54.618,5.168 55.663,6.147 C56.626,7.049 57.682,6.653 58.694,5.975 C60.336,8.149 61.301,10.559 61.725,13.277 C61.395,13.316 61.081,13.360 60.767,13.390 ZM58.205,8.689 C58.142,8.558 57.836,8.438 57.679,8.474 C55.316,9.020 52.681,6.424 53.245,4.014 C53.279,3.869 53.176,3.584 53.059,3.528 C52.052,3.044 51.027,2.599 50.022,2.148 C48.187,5.426 44.600,5.468 42.723,2.146 C41.719,2.598 40.694,3.045 39.688,3.531 C39.571,3.587 39.474,3.872 39.507,4.020 C40.051,6.420 37.475,9.010 35.064,8.471 C34.921,8.440 34.662,8.495 34.601,8.596 C33.998,9.594 33.530,10.650 33.278,11.772 C34.734,12.590 35.689,13.704 35.681,15.359 C35.672,17.032 34.670,18.139 33.179,18.970 C33.624,19.976 34.035,20.957 34.501,21.910 C34.579,22.070 34.918,22.229 35.098,22.193 C37.550,21.703 40.040,24.324 39.508,26.634 C39.473,26.786 39.554,27.080 39.665,27.133 C40.687,27.624 41.727,28.077 42.756,28.537 C43.609,26.989 44.725,26.034 46.376,26.033 C48.051,26.033 49.166,27.026 50.001,28.533 C51.014,28.085 52.011,27.664 52.984,27.193 C53.129,27.123 53.257,26.808 53.231,26.630 C52.861,24.087 55.124,21.816 57.655,22.199 C57.818,22.224 58.108,22.166 58.160,22.060 C58.654,21.038 59.110,19.997 59.569,18.977 C56.132,17.052 56.420,13.397 59.576,11.716 C59.117,10.689 58.683,9.678 58.205,8.689 ZM46.374,20.164 C43.838,20.163 41.527,17.830 41.551,15.294 C41.576,12.781 43.892,10.500 46.404,10.516 C48.917,10.533 51.207,12.844 51.199,15.354 C51.191,17.863 48.882,20.164 46.374,20.164 ZM46.390,12.415 C44.639,12.411 43.458,13.574 43.450,15.310 C43.442,17.068 44.600,18.256 46.329,18.265 C48.117,18.274 49.295,17.114 49.300,15.340 C49.305,13.597 48.133,12.419 46.390,12.415 ZM31.846,28.167 C31.933,28.583 32.094,29.037 32.364,29.351 C32.852,29.918 33.598,30.066 34.253,29.820 C34.867,29.589 35.382,29.095 35.979,28.691 C38.466,31.789 39.944,35.361 40.422,39.447 C40.118,39.480 39.830,39.524 39.541,39.543 C38.336,39.622 37.645,40.310 37.638,41.451 C37.630,42.653 38.291,43.356 39.514,43.446 C39.793,43.467 40.072,43.495 40.417,43.526 C39.966,47.592 38.480,51.170 35.910,54.388 C35.656,54.146 35.428,53.929 35.200,53.711 C34.390,52.940 33.096,52.894 32.361,53.609 C31.612,54.339 31.651,55.659 32.446,56.490 C32.654,56.708 32.861,56.926 33.107,57.183 C29.937,59.744 26.363,61.211 22.252,61.703 C22.157,60.321 22.068,58.918 20.215,58.922 C18.371,58.926 18.264,60.315 18.195,61.697 C14.109,61.235 10.541,59.754 7.325,57.190 C7.575,56.928 7.807,56.690 8.033,56.447 C8.792,55.632 8.810,54.325 8.073,53.608 C7.356,52.910 6.058,52.929 5.281,53.673 C5.050,53.895 4.879,54.179 4.625,54.506 C1.967,51.205 0.486,47.628 0.015,43.531 C0.360,43.500 0.672,43.470 0.984,43.443 C2.139,43.341 2.796,42.641 2.800,41.510 C2.804,40.365 2.168,39.668 1.013,39.553 C0.698,39.522 0.382,39.496 0.018,39.462 C0.477,35.377 1.965,31.798 4.524,28.601 C5.239,29.285 5.863,30.105 6.961,29.864 C7.373,29.773 7.818,29.580 8.122,29.298 C8.651,28.809 8.782,28.084 8.537,27.449 C8.306,26.853 7.832,26.351 7.417,25.735 C10.502,23.245 14.080,21.770 18.170,21.293 C18.205,21.609 18.244,21.899 18.267,22.191 C18.366,23.426 19.063,24.089 20.255,24.077 C21.399,24.066 22.084,23.385 22.170,22.178 C22.190,21.901 22.222,21.624 22.254,21.297 C26.328,21.750 29.905,23.242 33.110,25.803 C32.468,26.505 31.621,27.087 31.846,28.167 ZM30.175,26.657 C30.307,26.320 30.359,26.099 29.977,25.867 C28.186,24.782 26.289,23.977 24.240,23.527 C23.930,23.458 23.784,23.507 23.618,23.786 C21.889,26.696 18.519,26.703 16.821,23.802 C16.664,23.535 16.536,23.448 16.210,23.521 C14.163,23.978 12.258,24.765 10.473,25.862 C10.157,26.057 10.092,26.229 10.233,26.588 C10.830,28.110 10.449,29.456 9.335,30.580 C8.203,31.721 6.842,32.118 5.298,31.504 C4.921,31.355 4.764,31.462 4.578,31.763 C3.487,33.528 2.711,35.417 2.252,37.441 C2.176,37.776 2.231,37.930 2.536,38.105 C5.395,39.750 5.406,43.219 2.554,44.871 C2.217,45.066 2.183,45.238 2.262,45.586 C2.716,47.591 3.496,49.456 4.565,51.209 C4.769,51.542 4.939,51.625 5.332,51.474 C6.853,50.884 8.198,51.274 9.319,52.394 C10.440,53.513 10.831,54.858 10.240,56.379 C10.086,56.775 10.175,56.941 10.504,57.144 C12.234,58.213 14.087,58.971 16.065,59.441 C16.449,59.532 16.649,59.492 16.871,59.105 C18.462,56.335 21.987,56.349 23.577,59.127 C23.780,59.481 23.965,59.534 24.335,59.447 C26.336,58.981 28.205,58.210 29.953,57.131 C30.265,56.938 30.343,56.771 30.202,56.407 C29.611,54.887 29.982,53.540 31.098,52.413 C32.231,51.268 33.592,50.879 35.136,51.483 C35.511,51.630 35.668,51.525 35.856,51.223 C36.920,49.514 37.661,47.675 38.153,45.725 C38.271,45.259 38.180,45.032 37.741,44.785 C36.227,43.932 35.471,42.246 35.853,40.695 C36.139,39.534 36.848,38.686 37.883,38.109 C38.133,37.969 38.277,37.865 38.199,37.513 C37.732,35.426 36.944,33.476 35.777,31.686 C35.691,31.552 35.391,31.471 35.213,31.500 C34.741,31.578 34.280,31.728 34.047,31.789 C31.476,31.786 29.170,29.224 30.175,26.657 ZM20.195,51.164 C15.005,51.153 10.540,46.665 10.551,41.472 C10.562,36.279 15.042,31.819 20.240,31.828 C25.428,31.838 29.895,36.325 29.886,41.518 C29.877,46.704 25.385,51.176 20.195,51.164 ZM20.280,33.727 C15.829,33.714 12.464,37.025 12.450,41.433 C12.436,45.884 15.755,49.258 20.155,49.265 C24.636,49.272 27.975,45.962 27.987,41.497 C28.000,37.103 24.665,33.741 20.280,33.727 ZM20.158,45.351 C18.187,45.323 16.332,43.418 16.362,41.452 C16.391,39.473 18.278,37.622 20.247,37.639 C22.223,37.657 24.089,39.545 24.074,41.509 C24.058,43.517 22.159,45.380 20.158,45.351 ZM20.245,39.541 C19.023,39.526 18.266,40.262 18.263,41.467 C18.260,42.701 18.980,43.444 20.190,43.452 C21.415,43.461 22.166,42.731 22.175,41.524 C22.183,40.296 21.462,39.555 20.245,39.541 Z" class="cls-1"/>
</svg>
