<svg xmlns="http://www.w3.org/2000/svg" xmlns:xlink="http://www.w3.org/1999/xlink" preserveAspectRatio="xMidYMid" width="49" height="60" viewBox="0 0 49 60">
  <defs>
    <style>
      .cls-1 {
        fill: #000;
        fill-rule: evenodd;
      }
    </style>
  </defs>
  <path d="M48.815,7.930 C48.066,10.976 45.368,13.095 42.221,13.106 C41.989,13.107 41.756,13.106 41.453,13.106 C41.453,23.428 41.453,33.707 41.453,44.016 C40.819,44.016 40.256,44.016 39.643,44.016 C39.643,33.135 39.643,22.248 39.643,11.269 C40.395,11.269 41.172,11.299 41.946,11.259 C42.627,11.225 43.331,11.205 43.977,11.015 C46.127,10.385 47.402,8.260 47.110,5.925 C46.825,3.642 45.048,1.973 42.786,1.865 C39.731,1.719 37.674,3.690 37.674,6.746 C37.676,22.195 37.674,37.643 37.673,53.092 C37.673,54.058 37.377,54.356 36.416,54.356 C32.961,54.357 29.506,54.356 26.050,54.356 C25.878,54.356 25.705,54.356 25.497,54.356 C25.497,53.736 25.497,53.162 25.497,52.537 C28.918,52.537 32.326,52.537 35.826,52.537 C35.826,52.282 35.826,52.077 35.826,51.872 C35.826,36.853 35.827,21.834 35.822,6.815 C35.821,5.123 36.354,3.638 37.460,2.355 C37.562,2.237 37.660,2.115 37.758,1.993 C37.767,1.982 37.761,1.960 37.764,1.892 C37.602,1.880 37.437,1.858 37.272,1.858 C27.064,1.857 16.856,1.853 6.648,1.859 C3.810,1.861 1.870,3.788 1.869,6.609 C1.864,21.726 1.868,36.843 1.868,51.959 C1.868,52.114 1.868,52.269 1.868,52.496 C5.317,52.496 8.739,52.496 12.196,52.496 C12.196,53.141 12.196,53.714 12.196,54.358 C11.971,54.358 11.761,54.358 11.552,54.358 C8.136,54.357 4.720,54.346 1.304,54.367 C0.708,54.371 0.278,54.196 -0.000,53.672 C-0.000,37.734 -0.000,21.797 -0.000,5.860 C0.039,5.774 0.097,5.692 0.116,5.602 C0.705,2.754 2.438,0.977 5.227,0.185 C5.448,0.122 5.669,0.062 5.889,0.000 C18.296,0.000 30.704,0.000 43.111,0.000 C43.217,0.041 43.321,0.096 43.431,0.119 C46.287,0.733 48.055,2.478 48.835,5.253 C48.891,5.455 48.945,5.657 49.000,5.860 C49.000,6.328 49.000,6.797 49.000,7.266 C48.938,7.487 48.870,7.707 48.815,7.930 ZM7.594,44.945 C7.594,44.367 7.594,43.794 7.594,43.164 C8.204,43.164 8.766,43.164 9.367,43.164 C9.367,43.759 9.367,44.332 9.367,44.945 C8.786,44.945 8.210,44.945 7.594,44.945 ZM7.587,29.953 C7.587,29.324 7.587,28.764 7.587,28.173 C14.787,28.173 21.958,28.173 29.162,28.173 C29.162,28.774 29.162,29.348 29.162,29.953 C21.962,29.953 14.791,29.953 7.587,29.953 ZM7.587,24.422 C14.789,24.422 21.960,24.422 29.163,24.422 C29.163,25.025 29.163,25.599 29.163,26.203 C21.961,26.203 14.790,26.203 7.587,26.203 C7.587,25.571 7.587,25.012 7.587,24.422 ZM29.164,22.434 C21.987,22.434 14.802,22.434 7.586,22.434 C7.586,21.862 7.586,21.302 7.586,20.691 C14.763,20.691 21.948,20.691 29.164,20.691 C29.164,21.263 29.164,21.823 29.164,22.434 ZM15.959,11.289 C15.959,11.875 15.959,12.449 15.959,13.065 C15.391,13.065 14.815,13.065 14.195,13.065 C14.195,12.500 14.195,11.927 14.195,11.289 C14.792,11.289 15.354,11.289 15.959,11.289 ZM19.741,11.317 C19.741,11.889 19.741,12.449 19.741,13.058 C19.161,13.058 18.571,13.058 17.950,13.058 C17.950,12.487 17.950,11.927 17.950,11.317 C18.517,11.317 19.094,11.317 19.741,11.317 ZM23.506,11.294 C23.506,11.892 23.506,12.465 23.506,13.074 C22.912,13.074 22.336,13.074 21.726,13.074 C21.726,12.482 21.726,11.909 21.726,11.294 C22.347,11.294 22.909,11.294 23.506,11.294 ZM29.163,18.703 C21.960,18.703 14.789,18.703 7.587,18.703 C7.587,18.100 7.587,17.526 7.587,16.922 C14.789,16.922 21.960,16.922 29.163,16.922 C29.163,17.526 29.163,18.100 29.163,18.703 ZM27.389,44.960 C27.389,44.377 27.389,43.804 27.389,43.187 C27.951,43.187 28.528,43.187 29.150,43.187 C29.150,43.747 29.150,44.320 29.150,44.960 C28.557,44.960 27.995,44.960 27.389,44.960 ZM7.586,31.942 C14.764,31.942 21.949,31.942 29.163,31.942 C29.163,32.512 29.163,33.072 29.163,33.683 C21.986,33.683 14.802,33.683 7.586,33.683 C7.586,33.112 7.586,32.552 7.586,31.942 ZM17.735,37.638 C20.482,37.146 23.179,38.499 24.600,41.005 C25.932,43.354 25.633,46.099 23.796,48.243 C23.586,48.489 23.520,48.705 23.523,49.045 C23.552,52.362 23.537,55.680 23.540,58.997 C23.541,59.498 23.228,59.766 22.851,60.000 C22.694,60.000 22.537,60.000 22.380,60.000 C21.206,58.896 20.033,57.793 18.761,56.597 C18.453,56.935 18.171,57.280 17.853,57.589 C17.014,58.401 16.160,59.197 15.312,60.000 C15.155,60.000 14.998,60.000 14.841,60.000 C14.318,59.723 14.137,59.299 14.141,58.705 C14.163,55.564 14.130,52.422 14.172,49.280 C14.179,48.751 14.015,48.407 13.709,48.018 C10.347,43.740 13.374,38.419 17.735,37.638 ZM16.046,56.835 C16.736,56.134 17.317,55.536 17.907,54.946 C18.657,54.196 19.098,54.205 19.816,54.969 C20.382,55.572 20.950,56.175 21.517,56.777 C21.559,56.739 21.601,56.701 21.643,56.663 C21.643,54.445 21.643,52.228 21.643,49.940 C19.756,50.821 17.917,50.806 16.046,49.946 C16.046,52.256 16.046,54.463 16.046,56.835 ZM18.781,48.768 C21.570,48.779 23.558,46.843 23.576,44.097 C23.594,41.347 21.624,39.371 18.851,39.357 C16.150,39.344 14.130,41.311 14.117,43.969 C14.103,46.757 16.047,48.757 18.781,48.768 Z" class="cls-1"/>
</svg>
