<svg xmlns="http://www.w3.org/2000/svg" xmlns:xlink="http://www.w3.org/1999/xlink" preserveAspectRatio="xMidYMid" width="58" height="58" viewBox="0 0 58 58">
  <defs>
    <style>
      .cls-1 {
        fill: #000;
        fill-rule: evenodd;
      }
    </style>
  </defs>
  <path d="M57.890,45.799 C57.090,51.397 54.012,55.193 48.759,57.198 C47.667,57.614 46.464,57.740 45.313,58.000 C44.708,58.000 44.104,58.000 43.500,58.000 C42.889,57.893 42.274,57.808 41.669,57.675 C36.058,56.431 31.833,51.926 30.963,46.270 C29.889,39.295 35.089,32.242 42.047,31.033 C49.521,29.736 56.705,35.025 57.841,42.506 C57.891,42.837 57.947,43.168 58.000,43.499 C58.000,44.104 58.000,44.708 58.000,45.312 C57.963,45.474 57.913,45.635 57.890,45.799 ZM44.585,32.609 C37.797,32.594 32.626,37.665 32.610,44.353 C32.594,50.998 37.705,56.175 44.311,56.205 C50.985,56.234 56.182,51.113 56.205,44.486 C56.228,37.854 51.110,32.623 44.585,32.609 ZM52.615,43.539 C53.206,43.539 53.747,43.539 54.322,43.539 C54.322,44.116 54.322,44.670 54.322,45.260 C53.760,45.260 53.206,45.260 52.615,45.260 C52.615,44.696 52.615,44.142 52.615,43.539 ZM49.906,37.218 C50.438,37.218 50.992,37.218 51.613,37.218 C51.613,37.779 51.613,38.319 51.613,38.905 C51.063,38.905 50.508,38.905 49.906,38.905 C49.906,38.374 49.906,37.819 49.906,37.218 ZM51.594,51.594 C51.062,51.594 50.508,51.594 49.887,51.594 C49.887,51.033 49.887,50.492 49.887,49.906 C50.438,49.906 50.992,49.906 51.594,49.906 C51.594,50.437 51.594,50.992 51.594,51.594 ZM45.116,44.931 C43.924,46.166 42.707,47.377 41.471,48.621 C41.066,48.173 40.693,47.762 40.257,47.280 C41.197,46.346 42.200,45.376 43.165,44.369 C43.359,44.166 43.496,43.823 43.503,43.542 C43.535,42.053 43.518,40.562 43.518,39.028 C44.101,39.028 44.656,39.028 45.295,39.028 C45.295,39.310 45.295,39.604 45.295,39.897 C45.295,41.370 45.301,42.843 45.287,44.316 C45.285,44.524 45.247,44.795 45.116,44.931 ZM43.565,34.481 C44.118,34.481 44.659,34.481 45.247,34.481 C45.247,35.026 45.247,35.581 45.247,36.184 C44.723,36.184 44.169,36.184 43.565,36.184 C43.565,35.659 43.565,35.105 43.565,34.481 ZM37.203,49.891 C37.783,49.891 38.337,49.891 38.921,49.891 C38.921,50.471 38.921,51.024 38.921,51.611 C38.315,51.611 37.774,51.611 37.203,51.611 C37.203,51.030 37.203,50.476 37.203,49.891 ZM37.198,37.218 C37.751,37.218 38.305,37.218 38.907,37.218 C38.907,37.750 38.907,38.305 38.907,38.906 C38.374,38.906 37.820,38.906 37.198,38.906 C37.198,38.344 37.198,37.804 37.198,37.218 ZM34.477,43.552 C35.053,43.552 35.607,43.552 36.197,43.552 C36.197,44.115 36.197,44.670 36.197,45.259 C35.635,45.259 35.081,45.259 34.477,45.259 C34.477,44.669 34.477,44.129 34.477,43.552 ZM45.250,54.313 C44.718,54.313 44.164,54.313 43.542,54.313 C43.542,53.752 43.542,53.211 43.542,52.624 C44.095,52.624 44.650,52.624 45.250,52.624 C45.250,53.158 45.250,53.713 45.250,54.313 ZM53.423,16.357 C53.423,18.149 53.423,19.911 53.423,21.703 C51.630,21.703 49.869,21.703 48.077,21.703 C48.077,19.910 48.077,18.148 48.077,16.357 C49.870,16.357 51.632,16.357 53.423,16.357 ZM49.850,19.915 C50.487,19.915 51.059,19.915 51.641,19.915 C51.641,19.304 51.641,18.731 51.641,18.155 C51.021,18.155 50.436,18.155 49.850,18.155 C49.850,18.764 49.850,19.323 49.850,19.915 ZM53.423,28.953 C51.631,28.953 49.869,28.953 48.077,28.953 C48.077,27.161 48.077,25.399 48.077,23.607 C49.869,23.607 51.631,23.607 53.423,23.607 C53.423,25.398 53.423,27.160 53.423,28.953 ZM51.655,25.388 C51.024,25.388 50.453,25.388 49.875,25.388 C49.875,26.007 49.875,26.591 49.875,27.161 C50.496,27.161 51.068,27.161 51.655,27.161 C51.655,26.561 51.655,26.003 51.655,25.388 ZM40.828,28.952 C40.828,27.163 40.828,25.400 40.828,23.607 C42.618,23.607 44.380,23.607 46.172,23.607 C46.172,25.397 46.172,27.159 46.172,28.952 C44.383,28.952 42.621,28.952 40.828,28.952 ZM44.393,25.403 C43.776,25.403 43.191,25.403 42.598,25.403 C42.598,26.010 42.598,26.568 42.598,27.168 C43.232,27.168 43.804,27.168 44.393,27.168 C44.393,26.559 44.393,25.987 44.393,25.403 ZM40.827,16.357 C42.620,16.357 44.382,16.357 46.173,16.357 C46.173,18.150 46.173,19.912 46.173,21.703 C44.381,21.703 42.619,21.703 40.827,21.703 C40.827,19.910 40.827,18.148 40.827,16.357 ZM42.598,19.917 C43.232,19.917 43.804,19.917 44.393,19.917 C44.393,19.308 44.393,18.736 44.393,18.152 C43.775,18.152 43.190,18.152 42.598,18.152 C42.598,18.759 42.598,19.317 42.598,19.917 ZM38.923,28.953 C37.132,28.953 35.370,28.953 33.578,28.953 C33.578,27.161 33.578,25.399 33.578,23.607 C35.369,23.607 37.131,23.607 38.923,23.607 C38.923,25.399 38.923,27.161 38.923,28.953 ZM37.143,25.403 C36.525,25.403 35.940,25.403 35.348,25.403 C35.348,26.009 35.348,26.568 35.348,27.167 C35.982,27.167 36.554,27.167 37.143,27.167 C37.143,26.559 37.143,25.986 37.143,25.403 ZM33.577,16.356 C35.368,16.356 37.130,16.356 38.923,16.356 C38.923,18.149 38.923,19.911 38.923,21.702 C37.131,21.702 35.369,21.702 33.577,21.702 C33.577,19.910 33.577,18.147 33.577,16.356 ZM35.361,19.923 C35.968,19.923 36.540,19.923 37.129,19.923 C37.129,19.306 37.129,18.721 37.129,18.125 C36.525,18.125 35.966,18.125 35.361,18.125 C35.361,18.758 35.361,19.330 35.361,19.923 ZM4.577,43.453 C4.577,41.661 4.577,39.899 4.577,38.108 C6.370,38.108 8.131,38.108 9.923,38.108 C9.923,39.900 9.923,41.662 9.923,43.453 C8.130,43.453 6.368,43.453 4.577,43.453 ZM8.154,39.888 C7.528,39.888 6.956,39.888 6.372,39.888 C6.372,40.506 6.372,41.091 6.372,41.662 C6.991,41.662 7.563,41.662 8.154,41.662 C8.154,41.061 8.154,40.502 8.154,39.888 ZM4.577,30.857 C6.369,30.857 8.131,30.857 9.923,30.857 C9.923,32.649 9.923,34.411 9.923,36.203 C8.131,36.203 6.369,36.203 4.577,36.203 C4.577,34.412 4.577,32.650 4.577,30.857 ZM6.364,34.422 C6.974,34.422 7.546,34.422 8.126,34.422 C8.126,33.805 8.126,33.220 8.126,32.628 C7.519,32.628 6.961,32.628 6.364,32.628 C6.364,33.262 6.364,33.833 6.364,34.422 ZM8.118,18.177 C8.118,18.763 8.118,19.304 8.118,19.882 C7.543,19.882 6.990,19.882 6.397,19.882 C6.397,19.323 6.397,18.769 6.397,18.177 C6.956,18.177 7.510,18.177 8.118,18.177 ZM9.923,28.953 C8.131,28.953 6.369,28.953 4.577,28.953 C4.577,27.161 4.577,25.399 4.577,23.607 C6.369,23.607 8.131,23.607 9.923,23.607 C9.923,25.399 9.923,27.161 9.923,28.953 ZM8.138,25.388 C7.530,25.388 6.958,25.388 6.356,25.388 C6.356,25.993 6.356,26.565 6.356,27.163 C6.993,27.163 7.565,27.163 8.138,27.163 C8.138,26.548 8.138,25.976 8.138,25.388 ZM11.827,43.453 C11.827,41.661 11.827,39.899 11.827,38.107 C13.618,38.107 15.380,38.107 17.172,38.107 C17.172,39.899 17.172,41.661 17.172,43.453 C15.381,43.453 13.619,43.453 11.827,43.453 ZM15.379,39.896 C14.761,39.896 14.189,39.896 13.611,39.896 C13.611,40.509 13.611,41.081 13.611,41.674 C14.217,41.674 14.790,41.674 15.379,41.674 C15.379,41.058 15.379,40.472 15.379,39.896 ZM11.827,30.857 C13.619,30.857 15.381,30.857 17.173,30.857 C17.173,32.649 17.173,34.411 17.173,36.203 C15.381,36.203 13.618,36.203 11.827,36.203 C11.827,34.411 11.827,32.649 11.827,30.857 ZM13.606,34.424 C14.208,34.424 14.779,34.424 15.383,34.424 C15.383,33.788 15.383,33.216 15.383,32.641 C14.770,32.641 14.197,32.641 13.606,32.641 C13.606,33.249 13.606,33.821 13.606,34.424 ZM15.351,18.178 C15.351,18.734 15.351,19.288 15.351,19.899 C14.768,19.899 14.227,19.899 13.649,19.899 C13.649,19.325 13.649,18.771 13.649,18.178 C14.204,18.178 14.758,18.178 15.351,18.178 ZM17.173,28.953 C15.381,28.953 13.619,28.953 11.827,28.953 C11.827,27.162 11.827,25.400 11.827,23.607 C13.619,23.607 15.381,23.607 17.173,23.607 C17.173,25.398 17.173,27.160 17.173,28.953 ZM15.379,25.374 C14.775,25.374 14.217,25.374 13.611,25.374 C13.611,26.006 13.611,26.577 13.611,27.155 C14.232,27.155 14.817,27.155 15.379,27.155 C15.379,26.534 15.379,25.962 15.379,25.374 ZM24.407,30.873 C24.407,32.616 24.407,34.379 24.407,36.208 C22.636,36.208 20.887,36.208 19.093,36.208 C19.093,34.443 19.093,32.681 19.093,30.873 C20.836,30.873 22.598,30.873 24.407,30.873 ZM20.875,34.409 C21.498,34.409 22.071,34.409 22.654,34.409 C22.654,33.805 22.654,33.246 22.654,32.641 C22.022,32.641 21.449,32.641 20.875,32.641 C20.875,33.262 20.875,33.848 20.875,34.409 ZM24.419,43.450 C22.640,43.450 20.878,43.450 19.081,43.450 C19.081,41.670 19.081,39.908 19.081,38.104 C20.888,38.104 22.637,38.104 24.419,38.104 C24.419,39.892 24.419,41.654 24.419,43.450 ZM22.630,39.876 C22.027,39.876 21.468,39.876 20.861,39.876 C20.861,40.509 20.861,41.081 20.861,41.655 C21.482,41.655 22.068,41.655 22.630,41.655 C22.630,41.032 22.630,40.460 22.630,39.876 ZM19.077,16.357 C20.868,16.357 22.630,16.357 24.423,16.357 C24.423,18.147 24.423,19.909 24.423,21.702 C22.632,21.702 20.870,21.702 19.077,21.702 C19.077,19.912 19.077,18.150 19.077,16.357 ZM20.875,19.911 C21.496,19.911 22.068,19.911 22.655,19.911 C22.655,19.311 22.655,18.752 22.655,18.138 C22.024,18.138 21.453,18.138 20.875,18.138 C20.875,18.756 20.875,19.341 20.875,19.911 ZM24.424,28.951 C22.633,28.951 20.871,28.951 19.078,28.951 C19.078,27.163 19.078,25.401 19.078,23.608 C20.866,23.608 22.628,23.608 24.424,23.608 C24.424,25.423 24.424,27.172 24.424,28.951 ZM22.645,25.387 C22.043,25.387 21.471,25.387 20.865,25.387 C20.865,26.017 20.865,26.589 20.865,27.169 C21.476,27.169 22.047,27.169 22.645,27.169 C22.645,26.561 22.645,25.989 22.645,25.387 ZM31.673,36.203 C29.882,36.203 28.120,36.203 26.327,36.203 C26.327,34.411 26.327,32.649 26.327,30.857 C28.119,30.857 29.881,30.857 31.673,30.857 C31.673,32.650 31.673,34.412 31.673,36.203 ZM29.896,32.649 C29.257,32.649 28.685,32.649 28.113,32.649 C28.113,33.264 28.113,33.837 28.113,34.422 C28.723,34.422 29.295,34.422 29.896,34.422 C29.896,33.818 29.896,33.246 29.896,32.649 ZM31.673,28.953 C29.881,28.953 28.119,28.953 26.327,28.953 C26.327,27.160 26.327,25.398 26.327,23.606 C28.118,23.606 29.880,23.606 31.673,23.606 C31.673,25.398 31.673,27.160 31.673,28.953 ZM29.896,25.398 C29.255,25.398 28.682,25.398 28.113,25.398 C28.113,26.014 28.113,26.586 28.113,27.171 C28.723,27.171 29.295,27.171 29.896,27.171 C29.896,26.565 29.896,25.993 29.896,25.398 ZM31.673,21.702 C29.880,21.702 28.118,21.702 26.327,21.702 C26.327,19.910 26.327,18.148 26.327,16.356 C28.119,16.356 29.881,16.356 31.673,16.356 C31.673,18.149 31.673,19.911 31.673,21.702 ZM29.892,18.145 C29.261,18.145 28.689,18.145 28.110,18.145 C28.110,18.757 28.110,19.329 28.110,19.923 C28.716,19.923 29.288,19.923 29.892,19.923 C29.892,19.320 29.892,18.748 29.892,18.145 ZM56.216,10.897 C38.065,10.897 19.960,10.897 1.825,10.897 C1.825,23.571 1.825,36.226 1.825,48.948 C10.871,48.948 19.898,48.948 28.955,48.948 C28.955,49.555 28.955,50.097 28.955,50.734 C28.726,50.734 28.490,50.734 28.255,50.734 C18.987,50.733 9.720,50.732 0.452,50.733 C0.302,50.733 0.151,50.744 -0.000,50.750 C-0.000,36.853 -0.000,22.957 -0.000,9.060 C4.357,9.066 8.714,9.077 13.071,9.077 C27.802,9.080 42.534,9.078 57.265,9.077 C57.510,9.077 57.755,9.066 58.000,9.060 C58.000,16.915 58.000,24.769 58.000,32.624 C57.420,32.624 56.840,32.624 56.216,32.624 C56.216,25.345 56.216,18.143 56.216,10.897 ZM6.390,5.370 C6.390,4.806 6.390,4.251 6.390,3.668 C21.474,3.668 36.527,3.668 51.610,3.668 C51.610,4.237 51.610,4.779 51.610,5.370 C36.552,5.370 21.486,5.370 6.390,5.370 ZM56.216,1.834 C38.069,1.834 19.970,1.834 1.804,1.834 C1.804,3.615 1.804,5.395 1.804,7.248 C1.159,7.248 0.580,7.248 -0.000,7.248 C-0.000,4.833 -0.000,2.418 -0.000,0.000 C19.333,0.000 38.667,0.000 58.000,0.000 C58.000,2.418 58.000,4.833 58.000,7.248 C57.420,7.248 56.841,7.248 56.216,7.248 C56.216,5.408 56.216,3.642 56.216,1.834 Z" class="cls-1"/>
</svg>
