<svg xmlns="http://www.w3.org/2000/svg" xmlns:xlink="http://www.w3.org/1999/xlink" preserveAspectRatio="xMidYMid" width="52" height="52" viewBox="0 0 52 52">
  <defs>
    <style>
      .cls-1 {
        fill: #000;
        fill-rule: evenodd;
      }
    </style>
  </defs>
  <path d="M22.744,22.794 C22.404,23.133 22.404,23.681 22.744,24.020 L27.951,29.221 C28.120,29.390 28.342,29.475 28.565,29.475 C28.787,29.475 29.009,29.390 29.178,29.221 C29.518,28.883 29.518,28.334 29.178,27.995 L23.971,22.794 C23.631,22.455 23.083,22.455 22.744,22.794 L22.744,22.794 ZM20.499,26.262 C20.160,25.923 19.611,25.923 19.272,26.262 C18.933,26.601 18.933,27.148 19.272,27.487 L24.479,32.689 C24.649,32.858 24.871,32.943 25.093,32.943 C25.315,32.943 25.537,32.858 25.707,32.689 C26.046,32.350 26.046,31.802 25.707,31.463 L20.499,26.262 ZM17.028,29.729 C16.688,29.390 16.140,29.390 15.800,29.729 C15.461,30.068 15.461,30.616 15.800,30.955 L21.008,36.157 C21.177,36.326 21.399,36.411 21.621,36.411 C21.844,36.411 22.066,36.326 22.235,36.157 C22.574,35.818 22.574,35.270 22.235,34.931 L17.028,29.729 ZM33.413,27.742 L24.225,18.564 L11.566,31.209 L20.754,40.386 L33.413,27.742 ZM24.839,16.725 L35.254,27.129 C35.593,27.467 35.593,28.015 35.254,28.354 L21.367,42.225 C21.198,42.394 20.976,42.479 20.754,42.479 C20.531,42.479 20.309,42.394 20.140,42.225 L9.725,31.822 C9.386,31.483 9.386,30.935 9.725,30.596 L23.612,16.725 C23.951,16.387 24.499,16.387 24.839,16.725 L24.839,16.725 ZM45.033,31.708 C44.618,31.464 44.087,31.604 43.845,32.017 L33.897,48.965 C33.178,50.207 31.582,50.635 30.378,49.942 L28.440,48.687 C28.039,48.426 27.501,48.541 27.240,48.943 C26.979,49.345 27.094,49.882 27.496,50.142 L29.472,51.420 C30.153,51.813 30.898,51.999 31.634,51.999 C33.135,51.999 34.596,51.224 35.397,49.837 L45.342,32.894 C45.584,32.481 45.446,31.950 45.033,31.708 L45.033,31.708 ZM51.998,4.335 L51.998,18.206 C51.998,20.888 51.144,22.886 49.140,24.887 L23.365,50.669 C22.545,51.488 21.455,51.938 20.295,51.938 C19.136,51.938 18.047,51.488 17.228,50.669 L1.272,34.732 C0.452,33.912 0.000,32.823 0.000,31.665 C0.000,30.507 0.452,29.419 1.272,28.601 L23.815,6.113 C17.920,4.775 14.262,4.685 13.191,4.998 C13.643,5.460 15.051,6.441 18.451,7.780 C18.897,7.956 19.116,8.459 18.940,8.904 C18.764,9.350 18.260,9.566 17.815,9.393 C10.778,6.622 11.189,5.086 11.345,4.508 C11.667,3.303 13.386,2.902 16.908,3.209 C19.776,3.460 23.479,4.167 27.333,5.197 C31.187,6.229 34.746,7.466 37.355,8.683 C40.562,10.176 41.847,11.380 41.523,12.586 C41.211,13.749 39.587,13.891 39.053,13.938 C39.028,13.941 39.002,13.942 38.977,13.942 C38.532,13.942 38.153,13.601 38.113,13.150 C38.071,12.674 38.424,12.253 38.902,12.212 C39.272,12.180 39.517,12.129 39.676,12.084 C39.305,11.697 38.365,11.092 36.862,10.373 C36.547,10.903 36.376,11.513 36.376,12.137 C36.376,14.050 37.933,15.604 39.847,15.604 C41.762,15.604 43.319,14.050 43.319,12.137 C43.319,10.225 41.762,8.669 39.847,8.669 C39.367,8.669 38.979,8.282 38.979,7.802 C38.979,7.323 39.367,6.935 39.847,6.935 C42.719,6.935 45.055,9.268 45.055,12.137 C45.055,15.006 42.719,17.339 39.847,17.339 C36.975,17.339 34.640,15.006 34.640,12.137 C34.640,11.267 34.869,10.420 35.278,9.665 C33.201,8.793 30.415,7.818 26.884,6.872 C26.512,6.772 26.154,6.682 25.795,6.590 L2.499,29.827 C2.007,30.318 1.736,30.971 1.736,31.665 C1.736,32.360 2.007,33.013 2.499,33.505 L18.455,49.443 C19.439,50.425 21.154,50.425 22.137,49.443 L47.912,23.661 C49.603,21.972 50.262,20.442 50.262,18.206 L50.262,4.335 C50.262,2.901 49.094,1.734 47.658,1.734 L33.772,1.734 C31.533,1.734 30.001,2.392 28.310,4.081 C27.971,4.420 27.422,4.420 27.083,4.081 C26.744,3.742 26.744,3.194 27.083,2.855 C29.086,0.853 31.087,0.000 33.772,0.000 L47.658,0.000 C50.051,0.000 51.998,1.944 51.998,4.335 L51.998,4.335 Z" class="cls-1"/>
</svg>
