<svg xmlns="http://www.w3.org/2000/svg" xmlns:xlink="http://www.w3.org/1999/xlink" preserveAspectRatio="xMidYMid" width="39" height="53" viewBox="0 0 39 53">
  <defs>
    <style>
      .cls-1 {
        fill: #000;
        fill-rule: evenodd;
      }
    </style>
  </defs>
  <path d="M17.727,27.384 C17.238,27.384 16.841,26.987 16.841,26.500 C16.841,26.013 17.238,25.617 17.727,25.617 C18.217,25.617 18.614,26.013 18.614,26.500 C18.614,26.987 18.217,27.384 17.727,27.384 M18.614,24.012 L18.614,16.783 C18.614,16.296 18.217,15.900 17.727,15.900 C17.237,15.900 16.841,16.296 16.841,16.783 L16.841,24.012 C15.812,24.379 15.068,25.350 15.068,26.500 C15.068,26.665 15.088,26.825 15.117,26.981 L6.537,31.919 C6.112,32.162 5.967,32.702 6.212,33.125 C6.376,33.409 6.674,33.567 6.981,33.567 C7.132,33.567 7.284,33.529 7.423,33.448 L16.010,28.507 C16.476,28.903 17.071,29.150 17.727,29.150 C19.193,29.150 20.386,27.961 20.386,26.500 C20.386,25.350 19.643,24.379 18.614,24.012 M39.000,23.850 L39.000,29.150 C39.000,29.637 38.604,30.034 38.114,30.034 C37.623,30.034 37.227,29.637 37.227,29.150 L37.227,23.850 C37.227,23.363 37.623,22.967 38.114,22.967 C38.604,22.967 39.000,23.363 39.000,23.850 M27.472,44.264 L26.586,52.214 C26.536,52.662 26.157,53.000 25.705,53.000 L9.750,53.000 C9.298,53.000 8.919,52.662 8.869,52.214 L7.983,44.264 C7.929,43.780 8.280,43.342 8.766,43.289 C9.258,43.231 9.691,43.585 9.745,44.070 L10.544,51.233 L12.409,51.233 L12.409,46.817 C12.409,46.329 12.805,45.933 13.295,45.933 C13.786,45.933 14.182,46.329 14.182,46.817 L14.182,51.233 L21.273,51.233 L21.273,46.817 C21.273,46.329 21.669,45.933 22.159,45.933 C22.649,45.933 23.045,46.329 23.045,46.817 L23.045,51.233 L24.910,51.233 L25.710,44.070 C25.763,43.585 26.210,43.236 26.688,43.289 C27.175,43.342 27.526,43.780 27.472,44.264 M7.983,8.736 L8.869,0.786 C8.919,0.338 9.298,0.000 9.750,0.000 L25.705,0.000 C26.157,0.000 26.536,0.338 26.586,0.786 L27.472,8.736 C27.526,9.220 27.175,9.658 26.688,9.711 C26.656,9.715 26.622,9.717 26.590,9.717 C26.144,9.717 25.760,9.383 25.710,8.931 L24.910,1.767 L23.045,1.767 L23.045,6.184 C23.045,6.671 22.649,7.067 22.159,7.067 C21.669,7.067 21.273,6.671 21.273,6.184 L21.273,1.767 L14.182,1.767 L14.182,6.184 C14.182,6.671 13.786,7.067 13.295,7.067 C12.805,7.067 12.409,6.671 12.409,6.184 L12.409,1.767 L10.544,1.767 L9.745,8.931 C9.691,9.415 9.248,9.768 8.766,9.711 C8.280,9.658 7.929,9.220 7.983,8.736 M26.454,39.795 L26.029,39.064 C25.783,38.640 25.241,38.496 24.818,38.740 C24.394,38.984 24.248,39.524 24.494,39.947 L24.916,40.675 C23.002,41.643 20.871,42.231 18.614,42.355 L18.614,39.750 C18.614,39.262 18.217,38.867 17.727,38.867 C17.237,38.867 16.841,39.262 16.841,39.750 L16.841,42.355 C14.583,42.231 12.452,41.643 10.539,40.675 L10.961,39.947 C11.206,39.524 11.061,38.984 10.636,38.740 C10.213,38.496 9.670,38.640 9.426,39.064 L9.001,39.795 C7.165,38.593 5.593,37.027 4.387,35.195 L5.120,34.773 C5.545,34.529 5.690,33.990 5.446,33.567 C5.199,33.143 4.656,32.999 4.234,33.244 L3.503,33.664 C2.532,31.757 1.942,29.633 1.818,27.384 L4.432,27.384 C4.922,27.384 5.318,26.987 5.318,26.500 C5.318,26.012 4.922,25.617 4.432,25.617 L1.818,25.617 C1.942,23.367 2.532,21.242 3.503,19.336 L4.234,19.757 C4.374,19.837 4.526,19.875 4.676,19.875 C4.983,19.875 5.281,19.717 5.446,19.433 C5.690,19.011 5.545,18.471 5.120,18.227 L4.387,17.805 C5.593,15.973 7.165,14.407 9.001,13.205 L9.426,13.936 C9.590,14.220 9.887,14.378 10.194,14.378 C10.345,14.378 10.497,14.340 10.636,14.261 C11.061,14.016 11.206,13.476 10.961,13.053 L10.539,12.325 C12.452,11.357 14.583,10.768 16.841,10.645 L16.841,13.250 C16.841,13.738 17.237,14.133 17.727,14.133 C18.217,14.133 18.614,13.738 18.614,13.250 L18.614,10.645 C20.871,10.768 23.002,11.357 24.916,12.325 L24.494,13.053 C24.248,13.476 24.394,14.016 24.818,14.261 C24.957,14.340 25.110,14.378 25.260,14.378 C25.567,14.378 25.865,14.220 26.029,13.936 L26.454,13.205 C28.290,14.407 29.862,15.973 31.068,17.805 L30.334,18.227 C29.909,18.471 29.764,19.011 30.009,19.433 C30.174,19.717 30.471,19.875 30.778,19.875 C30.929,19.875 31.080,19.837 31.220,19.757 L31.952,19.336 C32.922,21.242 33.512,23.367 33.637,25.617 L31.023,25.617 C30.533,25.617 30.136,26.012 30.136,26.500 C30.136,26.987 30.533,27.384 31.023,27.384 L33.637,27.384 C33.512,29.633 32.922,31.757 31.952,33.664 L31.220,33.244 C30.796,32.999 30.254,33.143 30.009,33.567 C29.764,33.990 29.909,34.529 30.334,34.773 L31.068,35.195 C29.862,37.027 28.290,38.593 26.454,39.795 M33.110,17.756 C33.098,17.727 33.097,17.695 33.080,17.667 C33.060,17.631 33.027,17.610 33.002,17.578 C31.468,14.978 29.289,12.807 26.680,11.277 C26.648,11.253 26.626,11.220 26.591,11.200 C26.563,11.183 26.532,11.182 26.501,11.170 C23.911,9.691 20.921,8.833 17.727,8.833 C14.534,8.833 11.543,9.691 8.953,11.170 C8.924,11.182 8.892,11.183 8.864,11.200 C8.828,11.220 8.807,11.253 8.775,11.277 C6.166,12.807 3.988,14.978 2.453,17.578 C2.428,17.610 2.395,17.631 2.375,17.667 C2.358,17.695 2.357,17.727 2.344,17.756 C0.861,20.337 0.000,23.317 0.000,26.500 C0.000,29.682 0.861,32.663 2.344,35.244 C2.357,35.273 2.358,35.305 2.375,35.333 C2.407,35.388 2.447,35.434 2.488,35.480 C4.021,38.054 6.186,40.204 8.775,41.722 C8.807,41.747 8.828,41.780 8.864,41.800 C8.904,41.823 8.946,41.835 8.988,41.851 C11.570,43.318 14.549,44.167 17.727,44.167 C20.906,44.167 23.885,43.318 26.467,41.851 C26.508,41.835 26.551,41.823 26.591,41.800 C26.626,41.780 26.648,41.747 26.680,41.722 C29.269,40.204 31.434,38.054 32.966,35.480 C33.007,35.434 33.048,35.388 33.080,35.333 C33.097,35.305 33.098,35.273 33.110,35.244 C34.594,32.663 35.455,29.682 35.455,26.500 C35.455,23.317 34.594,20.337 33.110,17.756 " class="cls-1"/>
</svg>
