<svg xmlns="http://www.w3.org/2000/svg" xmlns:xlink="http://www.w3.org/1999/xlink" preserveAspectRatio="xMidYMid" width="25.688" height="19.5" viewBox="0 0 25.688 19.5">
  <defs>
    <style>
      .cls-1 {
        fill: #282828;
        fill-rule: evenodd;
      }
    </style>
  </defs>
  <path d="M-0.015,19.501 C-0.015,12.999 -0.015,6.497 -0.015,-0.005 C8.558,-0.005 17.130,-0.005 25.703,-0.005 C25.703,6.497 25.703,12.999 25.703,19.501 C17.130,19.501 8.558,19.501 -0.015,19.501 ZM22.762,1.886 C16.098,1.886 9.698,1.886 3.298,1.886 C3.235,1.975 3.173,2.062 3.110,2.150 C6.096,5.102 9.078,8.057 12.071,11.001 C12.672,11.592 13.267,11.467 13.826,10.897 C15.171,9.529 16.519,8.164 17.870,6.802 C19.451,5.209 21.036,3.621 22.762,1.886 ZM22.696,17.666 C20.331,15.410 18.180,13.358 15.998,11.275 C15.208,12.065 14.375,13.066 12.872,13.069 C11.331,13.071 10.531,11.950 9.909,11.371 C7.670,13.514 5.509,15.582 3.332,17.666 C9.685,17.666 16.024,17.666 22.696,17.666 ZM1.866,3.363 C1.866,7.650 1.866,11.902 1.866,15.721 C3.847,13.811 6.006,11.730 8.184,9.632 C6.090,7.555 3.997,5.478 1.866,3.363 ZM23.828,15.980 C23.828,11.894 23.828,7.703 23.828,3.716 C21.798,5.727 19.710,7.795 17.547,9.936 C19.637,11.947 21.757,13.987 23.828,15.980 Z" class="cls-1"/>
</svg>
