<svg xmlns="http://www.w3.org/2000/svg" xmlns:xlink="http://www.w3.org/1999/xlink" preserveAspectRatio="xMidYMid" width="23" height="25" viewBox="0 0 23 25">
  <defs>
    <style>
      .cls-1 {
        fill: #282828;
        fill-rule: evenodd;
      }
    </style>
  </defs>
  <path d="M-0.000,25.000 C0.004,23.740 0.006,22.480 0.014,21.219 C0.019,20.444 0.093,19.678 0.301,18.930 C0.800,17.136 1.928,15.934 3.536,15.191 C4.621,14.689 5.776,14.471 6.942,14.311 C7.018,14.301 7.135,14.343 7.181,14.403 C8.095,15.617 9.351,16.064 10.765,16.146 C11.614,16.196 12.461,16.176 13.300,16.006 C14.303,15.802 15.121,15.283 15.767,14.456 C15.828,14.377 15.962,14.302 16.051,14.314 C17.210,14.470 18.357,14.687 19.436,15.182 C21.476,16.118 22.672,17.734 22.893,20.053 C23.000,21.174 22.959,22.310 22.981,23.440 C22.990,23.960 22.990,24.480 22.994,25.000 C15.329,25.000 7.665,25.000 -0.000,25.000 ZM4.142,16.493 C4.102,16.502 4.078,16.503 4.058,16.512 C2.520,17.212 1.622,18.438 1.463,20.175 C1.364,21.263 1.409,22.366 1.390,23.462 C1.390,23.492 1.403,23.522 1.413,23.564 C2.319,23.564 3.218,23.564 4.142,23.564 C4.142,21.198 4.142,18.849 4.142,16.493 ZM14.576,17.126 C12.510,17.767 10.463,17.767 8.410,17.111 C8.410,18.033 8.410,18.941 8.410,19.864 C10.483,19.864 12.527,19.864 14.576,19.864 C14.576,18.940 14.576,18.030 14.576,17.126 ZM17.623,16.262 C17.622,16.183 17.592,16.046 17.553,16.036 C17.206,15.949 16.854,15.837 16.502,15.835 C16.346,15.833 16.189,16.066 16.033,16.193 C16.014,16.208 15.998,16.227 15.978,16.239 C15.835,16.326 15.797,16.453 15.798,16.625 C15.805,18.041 15.802,19.457 15.802,20.873 C15.802,20.958 15.802,21.044 15.802,21.126 C12.914,21.126 10.060,21.126 7.193,21.126 C7.193,21.020 7.193,20.931 7.193,20.842 C7.193,19.426 7.194,18.010 7.189,16.595 C7.189,16.499 7.165,16.375 7.106,16.314 C6.553,15.754 6.550,15.757 5.803,15.941 C5.735,15.958 5.667,15.982 5.598,15.988 C5.415,16.002 5.363,16.092 5.364,16.286 C5.371,18.638 5.368,20.990 5.369,23.342 C5.369,23.412 5.378,23.483 5.383,23.561 C6.436,23.561 7.475,23.561 8.538,23.561 C8.538,23.345 8.538,23.145 8.538,22.929 C10.528,22.929 12.494,22.929 14.491,22.929 C14.491,23.150 14.491,23.356 14.491,23.564 C15.547,23.564 16.572,23.564 17.614,23.564 C17.619,23.474 17.626,23.395 17.626,23.316 C17.627,22.397 17.627,21.477 17.626,20.558 C17.626,19.126 17.627,17.694 17.623,16.262 ZM21.554,20.329 C21.534,19.668 21.336,19.037 21.036,18.447 C20.553,17.500 19.789,16.898 18.852,16.476 C18.852,18.856 18.852,21.208 18.852,23.567 C19.769,23.567 20.669,23.567 21.563,23.567 C21.563,22.472 21.588,21.399 21.554,20.329 ZM16.712,18.586 C16.161,18.591 16.163,18.601 16.165,18.010 C16.166,17.404 16.144,17.417 16.724,17.428 C17.290,17.414 17.279,17.422 17.274,17.999 C17.269,18.585 17.273,18.580 16.712,18.586 ZM6.251,18.586 C5.723,18.582 5.725,18.587 5.721,18.040 C5.716,17.390 5.703,17.426 6.302,17.426 C6.839,17.425 6.841,17.406 6.828,17.993 C6.838,18.604 6.851,18.590 6.251,18.586 ZM17.442,6.706 C17.376,7.703 17.334,8.702 17.241,9.696 C17.181,10.332 16.961,10.918 16.593,11.448 C16.078,12.192 15.596,12.961 15.104,13.723 C14.437,14.756 13.499,15.291 12.317,15.331 C11.651,15.353 10.980,15.342 10.315,15.286 C9.345,15.202 8.570,14.709 8.010,13.884 C7.380,12.956 6.765,12.016 6.169,11.064 C5.856,10.565 5.758,9.974 5.709,9.391 C5.635,8.509 5.606,7.623 5.556,6.739 C5.551,6.650 5.560,6.549 5.523,6.477 C5.255,5.951 5.296,5.407 5.423,4.860 C5.667,3.816 5.938,2.782 6.518,1.873 C6.929,1.228 7.447,0.719 8.211,0.609 C8.602,0.553 9.004,0.582 9.400,0.577 C9.710,0.574 10.019,0.577 10.346,0.577 C10.357,0.368 10.366,0.184 10.375,0.000 C11.123,0.000 11.871,0.000 12.619,0.000 C12.627,0.184 12.635,0.369 12.644,0.577 C13.119,0.577 13.579,0.609 14.033,0.571 C15.276,0.465 16.090,1.104 16.661,2.176 C17.184,3.160 17.474,4.230 17.653,5.332 C17.712,5.696 17.665,6.060 17.499,6.401 C17.456,6.490 17.449,6.603 17.442,6.706 ZM7.050,9.199 C7.111,9.579 7.154,9.997 7.338,10.314 C7.816,11.141 8.362,11.925 8.891,12.720 C9.233,13.233 9.669,13.636 10.262,13.795 C10.561,13.875 10.873,13.919 11.182,13.943 C12.483,14.047 13.576,13.691 14.301,12.448 C14.718,11.733 15.198,11.060 15.644,10.364 C15.708,10.265 15.761,10.151 15.793,10.036 C15.980,9.352 16.015,8.648 16.042,7.883 C15.937,7.979 15.874,8.027 15.822,8.085 C15.575,8.370 15.274,8.464 14.904,8.463 C12.607,8.457 10.310,8.466 8.013,8.481 C7.694,8.483 7.437,8.380 7.216,8.150 C7.144,8.075 7.067,8.004 6.993,7.931 C6.975,7.943 6.957,7.954 6.939,7.964 C6.974,8.377 6.985,8.793 7.050,9.199 ZM7.670,2.625 C7.617,2.705 7.567,2.788 7.522,2.874 C7.169,3.549 6.966,4.279 6.778,5.080 C7.401,5.193 7.994,5.300 8.621,5.414 C8.659,4.224 8.842,3.110 9.175,2.021 C8.368,1.929 8.045,2.061 7.670,2.625 ZM6.919,6.026 C7.015,6.105 7.114,6.182 7.208,6.263 C7.448,6.471 7.676,6.694 7.928,6.885 C8.043,6.972 8.202,7.042 8.341,7.042 C10.241,7.048 12.141,7.015 14.039,7.051 C14.649,7.063 15.143,6.938 15.553,6.463 C15.699,6.293 15.877,6.154 16.089,5.955 C13.004,6.542 9.996,6.541 6.919,6.026 ZM12.958,2.136 C12.912,1.996 12.830,2.000 12.726,2.000 C11.910,2.001 11.093,2.005 10.277,1.997 C10.125,1.995 10.050,2.043 10.015,2.195 C9.876,2.801 9.708,3.402 9.598,4.015 C9.513,4.488 9.499,4.975 9.452,5.474 C10.834,5.584 12.166,5.587 13.497,5.472 C13.507,5.428 13.518,5.405 13.517,5.382 C13.489,4.270 13.303,3.189 12.958,2.136 ZM15.409,2.755 C15.016,2.076 14.607,1.892 13.895,2.017 C14.078,3.130 14.261,4.243 14.451,5.398 C15.011,5.292 15.609,5.179 16.219,5.063 C16.015,4.224 15.811,3.450 15.409,2.755 Z" class="cls-1"/>
</svg>
