<svg xmlns="http://www.w3.org/2000/svg" xmlns:xlink="http://www.w3.org/1999/xlink" preserveAspectRatio="xMidYMid" width="26.594" height="26.62" viewBox="0 0 26.594 26.62">
  <defs>
    <style>
      .cls-1 {
        fill: #282828;
        fill-rule: evenodd;
      }
    </style>
  </defs>
  <path d="M24.765,14.556 C23.780,14.583 23.755,13.780 23.702,13.060 C23.292,7.524 19.184,3.351 13.736,2.942 C12.990,2.886 12.058,2.978 12.093,1.915 C12.132,0.722 13.144,1.016 13.787,0.997 C20.225,1.362 25.437,6.658 25.720,13.010 C25.753,13.747 25.751,14.529 24.765,14.556 ZM21.546,13.616 C21.401,13.777 21.039,14.175 20.677,14.573 C20.298,14.187 19.666,13.851 19.581,13.409 C18.791,9.306 17.284,7.814 13.168,7.078 C12.751,7.003 12.428,6.408 12.061,6.054 C12.511,5.747 12.960,5.176 13.412,5.174 C17.575,5.158 21.460,9.031 21.546,13.616 ZM16.752,18.526 C17.331,17.891 17.856,17.236 18.462,16.666 C19.759,15.445 21.263,15.453 22.565,16.686 C23.617,17.683 24.644,18.709 25.643,19.759 C26.934,21.118 26.914,22.580 25.623,23.962 C22.934,26.839 19.527,27.111 16.121,26.014 C7.929,23.377 2.487,17.890 0.342,9.471 C-0.441,6.399 0.065,3.437 2.511,1.084 C3.978,-0.328 5.449,-0.362 6.904,1.036 C7.886,1.979 8.850,2.942 9.797,3.921 C11.196,5.367 11.193,6.851 9.750,8.304 C9.199,8.859 8.535,9.302 8.014,9.723 C9.748,13.136 13.368,16.761 16.752,18.526 ZM6.627,11.443 C5.562,9.722 5.589,9.696 7.058,8.226 C7.493,7.791 7.917,7.344 8.367,6.923 C8.986,6.343 8.928,5.812 8.339,5.243 C7.422,4.356 6.520,3.453 5.633,2.537 C5.011,1.895 4.464,1.923 3.835,2.549 C2.148,4.230 1.727,6.301 2.154,8.513 C3.388,14.917 7.359,19.312 12.789,22.557 C14.774,23.743 16.944,24.437 19.820,24.590 C20.333,24.465 21.405,24.352 22.351,23.944 C24.874,22.857 25.020,21.918 23.110,20.009 C20.533,17.434 20.533,17.434 17.977,19.917 C17.946,19.947 17.913,19.977 17.885,20.012 C17.243,20.813 16.546,20.795 15.689,20.291 C11.935,18.084 8.913,15.138 6.627,11.443 Z" class="cls-1"/>
</svg>
