<svg xmlns="http://www.w3.org/2000/svg" xmlns:xlink="http://www.w3.org/1999/xlink" preserveAspectRatio="xMidYMid" width="41.781" height="47" viewBox="0 0 41.781 47">
  <defs>
    <style>
      .cls-1 {
        fill: #000;
        fill-rule: evenodd;
      }
    </style>
  </defs>
  <path d="M41.785,7.314 C41.786,12.710 41.786,18.106 41.785,23.502 C41.784,30.836 41.785,38.170 41.784,45.504 C41.783,46.988 41.780,46.991 40.251,46.991 C27.361,46.992 14.471,46.992 1.582,46.992 C1.298,46.992 1.014,46.983 0.730,46.982 C0.251,46.979 0.012,46.745 0.008,46.279 C0.006,46.002 -0.002,45.726 -0.002,45.449 C-0.002,30.816 -0.002,16.182 -0.002,1.548 C-0.002,1.272 0.005,0.995 0.008,0.718 C0.015,0.252 0.259,0.022 0.736,0.020 C1.020,0.020 1.304,0.012 1.588,0.012 C14.442,0.011 27.296,0.012 40.151,0.012 C40.364,0.012 40.578,0.027 40.790,0.011 C41.522,-0.047 41.800,0.273 41.792,0.986 C41.766,3.095 41.785,5.204 41.785,7.314 ZM40.019,2.645 C40.030,1.946 39.734,1.766 39.068,1.767 C26.965,1.779 14.861,1.783 2.758,1.761 C1.919,1.759 1.747,2.085 1.762,2.811 C1.799,4.712 1.772,6.614 1.775,8.516 C1.777,9.723 1.592,10.000 2.812,10.000 C8.739,10.002 14.885,10.000 20.812,10.000 C26.880,10.000 32.744,9.971 38.812,10.000 C39.627,10.004 40.034,9.508 40.021,8.762 C39.987,6.724 39.987,4.684 40.019,2.645 ZM39.812,13.000 C39.814,12.337 39.502,11.989 38.812,12.000 C37.358,12.023 36.267,12.000 34.812,12.000 C24.234,11.999 13.390,11.998 2.812,12.000 C1.554,12.000 1.812,11.829 1.812,13.000 C1.810,23.478 1.773,33.612 1.775,44.090 C1.776,45.219 1.785,45.226 2.973,45.226 C8.937,45.228 14.900,45.227 20.863,45.227 C26.862,45.227 32.861,45.220 38.859,45.236 C39.597,45.238 40.029,45.168 40.028,44.250 C40.011,33.634 39.784,23.616 39.812,13.000 ZM33.457,41.975 C28.479,41.957 23.500,41.999 18.522,42.002 C14.989,42.003 11.457,41.981 7.924,41.962 C6.093,41.953 4.817,40.730 4.816,38.959 C4.809,32.962 4.810,24.965 4.817,18.968 C4.819,17.247 6.126,16.004 7.913,16.003 C12.214,16.000 16.515,16.002 20.816,16.002 C25.064,16.002 29.311,16.001 33.558,16.002 C35.541,16.003 36.790,17.216 36.791,19.155 C36.794,25.013 36.759,32.872 36.813,38.730 C36.832,40.798 35.219,41.981 33.457,41.975 ZM21.808,35.569 C21.930,36.956 22.249,38.299 22.860,39.570 C23.000,39.861 23.175,39.977 23.511,39.960 C24.080,39.931 24.652,39.952 25.222,39.951 C25.793,39.951 26.365,39.928 26.934,39.959 C27.314,39.980 27.492,39.853 27.633,39.504 C28.856,36.468 29.103,33.357 28.440,30.171 C28.149,28.772 27.730,27.413 26.832,26.252 C25.897,25.044 24.786,24.992 23.840,26.186 C23.327,26.833 22.913,27.588 22.615,28.353 C21.709,30.681 21.592,33.115 21.808,35.569 ZM18.380,39.625 C18.438,39.762 18.636,39.928 18.777,39.935 C19.397,39.969 20.021,39.950 20.722,39.950 C20.128,38.304 19.798,36.705 19.696,35.056 C19.502,31.921 19.858,28.882 21.331,26.037 C21.480,25.750 21.367,25.628 21.156,25.494 C20.725,25.221 20.119,25.233 19.691,25.695 C19.175,26.252 18.693,26.874 18.357,27.544 C17.599,29.055 17.334,30.701 17.194,32.365 C16.982,34.879 17.407,37.296 18.380,39.625 ZM13.765,39.504 C13.831,39.679 14.027,39.918 14.179,39.929 C14.813,39.977 15.453,39.950 16.099,39.950 C14.588,35.059 14.597,30.307 16.999,25.688 C16.492,25.196 15.855,25.141 15.295,25.740 C14.754,26.317 14.282,26.997 13.947,27.706 C13.101,29.497 12.851,31.424 12.812,33.377 C12.771,35.470 13.019,37.527 13.765,39.504 ZM34.727,19.133 C34.727,18.332 34.381,17.993 33.558,17.993 C25.044,17.991 16.530,17.991 8.016,17.993 C7.232,17.993 6.867,18.350 6.864,19.103 C6.860,20.195 6.864,23.288 6.864,24.379 C6.865,29.199 6.864,34.018 6.865,38.837 C6.865,39.595 7.202,39.948 7.936,39.960 C8.400,39.966 8.864,39.963 9.328,39.963 C10.065,39.963 10.802,39.963 11.579,39.963 C11.528,39.799 11.504,39.718 11.476,39.637 C10.253,36.048 10.205,32.419 11.171,28.779 C11.625,27.069 12.341,25.462 13.740,24.247 C15.061,23.100 16.547,23.014 17.993,23.994 C18.243,24.164 18.395,24.175 18.639,23.995 C19.483,23.372 20.442,23.144 21.465,23.439 C21.965,23.584 22.420,23.875 22.911,24.107 C25.068,22.572 27.069,23.468 28.284,25.065 C28.662,25.563 28.987,26.111 29.256,26.673 C30.235,28.720 30.548,30.912 30.621,33.141 C30.697,35.446 30.356,37.698 29.544,39.961 C30.922,39.961 32.224,39.963 33.525,39.960 C34.410,39.958 34.725,39.660 34.725,38.816 C34.728,32.922 34.728,25.027 34.727,19.133 ZM35.478,8.569 C34.041,8.576 32.629,7.199 32.618,5.778 C32.606,4.348 33.955,2.987 35.428,2.944 C37.048,2.897 38.162,4.032 38.191,5.757 C38.215,7.254 36.954,8.562 35.478,8.569 ZM35.267,4.849 C35.113,5.058 34.696,5.380 34.651,5.746 C34.590,6.244 34.935,6.643 35.560,6.650 C36.155,6.657 36.387,6.297 36.408,5.807 C36.430,5.272 36.210,4.866 35.267,4.849 ZM25.905,8.562 C24.363,8.555 22.989,7.177 23.031,5.678 C23.072,4.220 24.459,2.921 25.952,2.943 C27.480,2.965 28.739,4.253 28.724,5.777 C28.708,7.309 27.434,8.568 25.905,8.562 ZM25.920,4.855 C25.302,4.876 25.011,5.256 25.048,5.792 C25.085,6.316 25.404,6.672 26.026,6.648 C26.629,6.626 26.820,6.233 26.821,5.756 C26.822,5.215 26.566,4.830 25.920,4.855 ZM16.010,8.563 C14.438,8.563 13.160,7.269 13.181,5.698 C13.200,4.190 14.487,2.939 16.016,2.941 C17.546,2.944 18.937,4.327 18.899,5.807 C18.861,7.262 17.497,8.563 16.010,8.563 ZM16.029,4.866 C15.476,4.872 15.177,5.178 15.155,5.701 C15.132,6.272 15.428,6.602 16.301,6.672 C16.477,6.438 16.900,6.119 16.954,5.747 C17.030,5.224 16.632,4.860 16.029,4.866 ZM6.385,8.567 C4.863,8.555 3.596,7.286 3.592,5.769 C3.587,4.206 4.896,2.918 6.464,2.942 C7.954,2.964 9.306,4.291 9.316,5.741 C9.325,7.224 7.921,8.578 6.385,8.567 ZM6.436,4.895 C5.846,4.800 5.548,5.236 5.568,5.803 C5.587,6.326 5.906,6.715 6.433,6.612 C6.831,6.534 7.171,6.177 7.537,5.944 C7.539,5.819 7.541,5.694 7.544,5.569 C7.176,5.333 6.832,4.958 6.436,4.895 Z" class="cls-1"/>
</svg>
