<svg xmlns="http://www.w3.org/2000/svg" xmlns:xlink="http://www.w3.org/1999/xlink" preserveAspectRatio="xMidYMid" width="41" height="48" viewBox="0 0 41 48">
  <defs>
    <style>
      .cls-1 {
        fill: #000;
        fill-rule: evenodd;
      }
    </style>
  </defs>
  <path d="M40.995,46.527 C40.995,47.988 40.991,47.994 39.514,47.994 C26.845,47.996 14.176,47.996 1.507,47.994 C0.013,47.994 0.009,47.987 0.008,46.544 C0.007,38.829 0.008,32.314 0.008,24.600 C0.008,16.885 0.007,9.170 0.009,1.455 C0.009,-0.005 0.013,-0.012 1.489,-0.012 C14.158,-0.014 26.827,-0.014 39.496,-0.012 C40.990,-0.012 40.995,-0.005 40.995,1.438 C40.996,16.868 40.996,31.097 40.995,46.527 ZM3.305,45.668 C9.055,45.671 14.806,45.669 20.556,45.669 C26.306,45.669 32.056,45.671 37.806,45.667 C39.081,45.666 39.100,45.650 39.101,44.475 C39.105,33.896 39.105,23.317 39.100,12.737 C39.100,11.619 39.083,11.609 37.871,11.609 C26.295,11.606 14.720,11.605 3.144,11.606 C1.914,11.606 1.902,11.616 1.902,12.837 C1.899,23.343 1.899,33.850 1.902,44.357 C1.902,45.660 1.911,45.667 3.305,45.668 ZM39.101,3.079 C39.097,1.840 39.089,1.836 37.752,1.835 C32.002,1.833 26.251,1.834 20.501,1.835 C14.712,1.835 8.924,1.833 3.135,1.837 C1.929,1.837 1.909,1.854 1.903,2.976 C1.893,4.860 1.928,6.745 1.888,8.628 C1.871,9.434 2.084,9.789 3.025,9.787 C14.678,9.761 26.330,9.761 37.983,9.786 C38.927,9.789 39.133,9.424 39.115,8.623 C39.075,6.775 39.108,4.927 39.101,3.079 ZM32.399,8.340 C30.893,8.334 29.593,7.226 29.673,5.864 C29.756,4.448 30.802,3.254 32.445,3.271 C34.012,3.286 35.101,4.370 35.144,5.804 C35.180,7.004 34.305,8.423 32.399,8.340 ZM25.569,6.704 C25.202,6.621 24.728,6.178 24.665,5.836 C24.559,5.263 25.026,4.948 25.963,4.970 C26.106,5.162 26.523,5.479 26.563,5.834 C26.626,6.403 26.150,6.835 25.569,6.704 ZM22.119,6.683 C21.791,6.654 21.303,6.141 21.257,5.797 C21.181,5.221 21.687,4.849 22.289,4.994 C22.674,5.086 22.988,5.449 23.334,5.691 C23.329,5.819 23.324,5.949 23.320,6.077 C22.918,6.299 22.497,6.716 22.119,6.683 ZM17.825,5.890 C17.778,5.355 18.099,5.015 18.687,4.967 C19.315,4.915 19.679,5.196 19.847,6.022 C19.596,6.215 19.290,6.615 18.904,6.707 C18.319,6.845 17.877,6.474 17.825,5.890 ZM15.230,6.889 C14.953,6.532 14.512,6.202 14.441,5.811 C14.350,5.305 14.772,4.977 15.359,4.962 C15.938,4.948 16.397,5.227 16.341,5.747 C16.298,6.143 15.884,6.503 15.635,6.879 C15.500,6.882 15.365,6.886 15.230,6.889 ZM10.502,6.768 C9.861,6.770 9.220,6.768 8.579,6.768 C8.579,6.769 8.579,6.770 8.579,6.771 C7.976,6.771 7.372,6.762 6.769,6.773 C6.119,6.785 5.796,6.508 5.785,5.869 C5.773,5.241 6.035,4.935 6.719,4.945 C7.963,4.964 9.207,4.958 10.452,4.946 C11.049,4.940 11.373,5.165 11.379,5.767 C11.385,6.352 11.206,6.765 10.502,6.768 ZM20.557,15.483 C28.823,15.523 35.108,21.638 35.155,29.394 C35.205,37.477 28.567,43.388 20.513,43.517 C12.326,43.359 5.886,37.470 5.855,29.517 C5.824,21.643 12.255,15.442 20.557,15.483 ZM20.398,41.563 C27.397,41.599 32.981,35.871 33.092,29.610 C33.211,22.899 26.922,17.407 20.551,17.397 C13.589,17.386 7.680,23.154 7.994,29.408 C7.620,35.859 13.637,41.528 20.398,41.563 ZM20.537,20.009 C25.895,20.036 29.969,24.177 29.999,29.428 C30.031,34.901 25.729,38.903 20.508,38.991 C15.202,38.884 11.028,34.896 11.007,29.512 C10.987,24.180 15.155,19.982 20.537,20.009 ZM20.434,37.667 C24.970,37.691 28.590,33.813 28.662,29.574 C28.739,25.030 24.663,21.312 20.533,21.305 C16.020,21.298 12.190,25.203 12.394,29.437 C12.151,33.806 16.051,37.644 20.434,37.667 Z" class="cls-1"/>
</svg>
