<svg xmlns="http://www.w3.org/2000/svg" xmlns:xlink="http://www.w3.org/1999/xlink" preserveAspectRatio="xMidYMid" width="47" height="47.969" viewBox="0 0 47 47.969">
  <defs>
    <style>
      .cls-1 {
        fill: #000;
        fill-rule: evenodd;
      }
    </style>
  </defs>
  <path d="M46.763,1.336 L43.810,4.302 L43.810,23.720 L21.106,47.138 C20.553,47.693 19.830,47.969 19.108,47.969 C18.389,47.969 17.671,47.695 17.124,47.145 L0.820,30.772 C0.289,30.239 -0.003,29.530 -0.003,28.776 C-0.003,28.023 0.289,27.313 0.820,26.780 L24.137,3.171 L42.683,3.171 L45.637,0.205 C45.949,-0.108 46.452,-0.108 46.763,0.205 C47.074,0.518 47.074,1.023 46.763,1.336 ZM42.217,5.902 L38.367,9.769 C38.785,10.401 39.031,11.157 39.031,11.971 C39.031,14.177 37.244,15.971 35.048,15.971 C32.852,15.971 31.065,14.177 31.065,11.971 C31.065,9.765 32.852,7.971 35.048,7.971 C35.858,7.971 36.611,8.218 37.241,8.637 L41.091,4.771 L24.801,4.771 L1.949,27.909 C1.717,28.143 1.590,28.450 1.590,28.776 C1.590,29.103 1.717,29.410 1.947,29.641 L18.250,46.014 C18.726,46.491 19.498,46.491 19.972,46.014 L42.217,23.070 L42.217,5.902 ZM34.485,11.405 L36.072,9.811 C35.760,9.662 35.416,9.571 35.048,9.571 C33.730,9.571 32.658,10.647 32.658,11.971 C32.658,13.294 33.730,14.371 35.048,14.371 C36.365,14.371 37.438,13.294 37.438,11.971 C37.438,11.601 37.347,11.256 37.198,10.943 L35.611,12.537 C35.456,12.693 35.252,12.771 35.048,12.771 C34.844,12.771 34.640,12.693 34.485,12.537 C34.173,12.223 34.173,11.718 34.485,11.405 ZM19.609,41.796 C19.920,41.476 20.422,41.476 20.740,41.779 C21.059,42.090 21.059,42.595 20.756,42.907 C20.597,43.075 20.390,43.155 20.183,43.155 C19.983,43.155 19.784,43.075 19.625,42.923 C19.314,42.619 19.306,42.115 19.609,41.796 ZM20.199,13.635 C19.999,13.635 19.800,13.554 19.641,13.403 C19.330,13.090 19.330,12.586 19.641,12.267 C19.944,11.954 20.453,11.954 20.764,12.267 C21.075,12.578 21.075,13.082 20.772,13.395 C20.613,13.554 20.406,13.635 20.199,13.635 ZM22.963,39.491 C23.281,39.796 23.281,40.300 22.979,40.619 C22.819,40.779 22.612,40.859 22.405,40.859 C22.206,40.859 22.007,40.787 21.856,40.636 C21.537,40.323 21.529,39.819 21.839,39.500 C22.142,39.188 22.644,39.180 22.963,39.491 ZM22.445,11.363 C22.246,11.363 22.039,11.282 21.887,11.131 C21.577,10.818 21.569,10.307 21.879,9.995 C22.190,9.683 22.692,9.683 23.011,9.995 C23.321,10.306 23.321,10.810 23.011,11.122 C22.859,11.282 22.652,11.363 22.445,11.363 ZM25.185,37.196 C25.504,37.500 25.504,38.011 25.201,38.323 C25.042,38.483 24.835,38.564 24.628,38.564 C24.428,38.564 24.229,38.491 24.078,38.340 C23.759,38.036 23.751,37.524 24.062,37.212 C24.365,36.891 24.875,36.884 25.185,37.196 ZM24.692,9.090 C24.493,9.090 24.286,9.010 24.134,8.858 C23.816,8.546 23.816,8.042 24.127,7.722 C24.436,7.411 24.939,7.411 25.250,7.722 C25.568,8.034 25.568,8.538 25.258,8.850 C25.098,9.010 24.899,9.090 24.692,9.090 ZM27.409,34.900 C27.727,35.212 27.735,35.716 27.424,36.036 C27.265,36.196 27.058,36.276 26.851,36.276 C26.652,36.276 26.453,36.204 26.301,36.052 C25.983,35.740 25.975,35.236 26.285,34.916 C26.587,34.603 27.089,34.596 27.409,34.900 ZM26.619,7.171 C26.619,6.731 26.970,6.370 27.416,6.370 C27.854,6.370 28.212,6.731 28.212,7.171 C28.212,7.611 27.854,7.971 27.416,7.971 C26.970,7.971 26.619,7.611 26.619,7.171 ZM29.631,32.611 C29.950,32.915 29.950,33.426 29.647,33.739 C29.488,33.899 29.281,33.979 29.073,33.979 C28.874,33.979 28.675,33.907 28.524,33.755 C28.205,33.451 28.197,32.940 28.508,32.627 C28.810,32.307 29.320,32.300 29.631,32.611 ZM30.602,6.370 C31.040,6.370 31.399,6.731 31.399,7.171 C31.399,7.611 31.040,7.971 30.602,7.971 C30.156,7.971 29.805,7.611 29.805,7.171 C29.805,6.731 30.156,6.370 30.602,6.370 ZM31.853,30.315 C32.171,30.619 32.179,31.132 31.869,31.451 C31.709,31.611 31.502,31.691 31.295,31.691 C31.096,31.691 30.897,31.611 30.746,31.459 C30.427,31.155 30.419,30.650 30.730,30.331 C31.032,30.011 31.542,30.004 31.853,30.315 ZM34.075,28.027 C34.394,28.332 34.402,28.835 34.091,29.155 C33.940,29.314 33.733,29.395 33.518,29.395 C33.318,29.395 33.119,29.323 32.968,29.171 C32.649,28.859 32.641,28.355 32.952,28.043 C33.256,27.723 33.765,27.716 34.075,28.027 ZM36.298,25.731 C36.616,26.035 36.624,26.547 36.314,26.867 C36.162,27.026 35.955,27.107 35.748,27.107 C35.541,27.107 35.342,27.026 35.191,26.875 C34.872,26.571 34.864,26.059 35.175,25.747 C35.485,25.426 35.987,25.419 36.298,25.731 ZM38.520,23.435 C38.839,23.747 38.847,24.251 38.536,24.571 C38.385,24.731 38.178,24.811 37.971,24.811 C37.763,24.811 37.564,24.739 37.413,24.587 C37.094,24.275 37.086,23.771 37.397,23.451 C37.700,23.139 38.210,23.131 38.520,23.435 ZM39.828,14.371 C40.267,14.371 40.624,14.729 40.624,15.171 C40.624,15.613 40.267,15.971 39.828,15.971 C39.388,15.971 39.031,15.613 39.031,15.171 C39.031,14.729 39.388,14.371 39.828,14.371 ZM39.828,17.571 C40.267,17.571 40.624,17.929 40.624,18.371 C40.624,18.813 40.267,19.171 39.828,19.171 C39.388,19.171 39.031,18.813 39.031,18.371 C39.031,17.929 39.388,17.571 39.828,17.571 ZM39.828,20.771 C40.267,20.771 40.624,21.129 40.624,21.571 C40.624,22.013 40.267,22.371 39.828,22.371 C39.388,22.371 39.031,22.013 39.031,21.571 C39.031,21.129 39.388,20.771 39.828,20.771 ZM17.960,15.907 C17.753,15.907 17.554,15.826 17.402,15.675 C17.084,15.363 17.084,14.858 17.394,14.539 C17.706,14.226 18.207,14.226 18.518,14.539 C18.836,14.850 18.836,15.354 18.526,15.667 C18.366,15.826 18.167,15.907 17.960,15.907 ZM18.510,41.748 C18.820,42.060 18.820,42.565 18.510,42.884 C18.350,43.036 18.151,43.116 17.944,43.116 C17.745,43.116 17.538,43.036 17.387,42.884 C17.076,42.565 17.076,42.060 17.387,41.748 C17.689,41.436 18.199,41.436 18.510,41.748 ZM15.714,18.179 C15.515,18.179 15.308,18.099 15.157,17.947 C14.846,17.635 14.838,17.131 15.149,16.811 C15.459,16.499 15.961,16.499 16.280,16.811 C16.591,17.122 16.591,17.626 16.280,17.939 C16.129,18.099 15.922,18.179 15.714,18.179 ZM16.256,39.484 C16.567,39.797 16.567,40.308 16.256,40.620 C16.105,40.772 15.898,40.852 15.691,40.852 C15.491,40.852 15.284,40.772 15.133,40.620 C14.822,40.308 14.822,39.797 15.133,39.484 C15.443,39.172 15.946,39.172 16.256,39.484 ZM13.467,20.451 C13.268,20.451 13.069,20.371 12.910,20.219 C12.599,19.907 12.599,19.396 12.910,19.083 C13.212,18.771 13.723,18.771 14.033,19.083 C14.343,19.387 14.343,19.899 14.041,20.211 C13.881,20.371 13.674,20.451 13.467,20.451 ZM14.001,37.220 C14.312,37.532 14.312,38.044 14.001,38.356 C13.850,38.508 13.643,38.588 13.435,38.588 C13.236,38.588 13.029,38.508 12.878,38.356 C12.567,38.044 12.567,37.532 12.878,37.220 C13.189,36.908 13.690,36.908 14.001,37.220 ZM11.229,22.722 C11.022,22.722 10.823,22.642 10.671,22.490 C10.353,22.178 10.353,21.667 10.663,21.354 C10.974,21.043 11.476,21.043 11.786,21.354 C12.105,21.666 12.105,22.170 11.794,22.482 C11.635,22.642 11.436,22.722 11.229,22.722 ZM11.747,34.964 C12.057,35.275 12.057,35.779 11.747,36.091 C11.595,36.251 11.388,36.323 11.189,36.323 C10.982,36.323 10.783,36.251 10.623,36.091 C10.313,35.780 10.313,35.276 10.623,34.964 C10.935,34.652 11.436,34.652 11.747,34.964 ZM8.982,24.995 C8.783,24.995 8.576,24.914 8.425,24.763 C8.114,24.451 8.106,23.946 8.417,23.627 C8.728,23.315 9.229,23.315 9.540,23.627 C9.859,23.938 9.859,24.443 9.548,24.755 C9.397,24.914 9.190,24.995 8.982,24.995 ZM9.500,32.700 C9.811,33.011 9.811,33.515 9.500,33.827 C9.341,33.987 9.134,34.059 8.935,34.059 C8.728,34.059 8.528,33.987 8.369,33.827 C8.058,33.516 8.058,33.012 8.369,32.700 C8.680,32.387 9.182,32.387 9.500,32.700 ZM6.744,27.268 C6.537,27.268 6.338,27.187 6.178,27.035 C5.868,26.722 5.868,26.219 6.178,25.899 C6.481,25.587 6.991,25.587 7.302,25.899 C7.612,26.210 7.612,26.714 7.302,27.026 C7.150,27.187 6.943,27.268 6.744,27.268 ZM7.246,30.435 C7.557,30.747 7.557,31.251 7.246,31.563 C7.087,31.723 6.887,31.803 6.680,31.803 C6.473,31.803 6.274,31.723 6.115,31.563 C5.804,31.251 5.804,30.747 6.115,30.435 C6.425,30.123 6.935,30.123 7.246,30.435 ZM4.498,29.539 C4.290,29.539 4.091,29.459 3.932,29.307 C3.621,28.995 3.621,28.491 3.932,28.171 C4.243,27.859 4.745,27.859 5.055,28.171 C5.366,28.483 5.374,28.987 5.063,29.299 C4.904,29.459 4.697,29.539 4.498,29.539 Z" class="cls-1"/>
</svg>
