<svg xmlns="http://www.w3.org/2000/svg" xmlns:xlink="http://www.w3.org/1999/xlink" preserveAspectRatio="xMidYMid" width="41" height="48" viewBox="0 0 41 48">
  <defs>
    <style>
      .cls-1 {
        fill: #000;
        fill-rule: evenodd;
      }
    </style>
  </defs>
  <path d="M40.995,46.527 C40.995,47.988 40.991,47.994 39.514,47.994 C26.845,47.996 14.176,47.996 1.507,47.994 C0.013,47.994 0.009,47.987 0.008,46.544 C0.007,38.829 0.008,32.314 0.008,24.600 C0.008,16.885 0.007,9.170 0.009,1.455 C0.009,-0.005 0.013,-0.012 1.489,-0.012 C14.158,-0.014 26.827,-0.014 39.496,-0.012 C40.990,-0.012 40.995,-0.005 40.995,1.438 C40.996,16.868 40.996,31.097 40.995,46.527 ZM3.305,45.668 C9.055,45.671 14.805,45.669 20.556,45.669 C26.306,45.669 32.056,45.671 37.806,45.667 C39.081,45.666 39.100,45.650 39.101,44.475 C39.105,33.896 39.105,23.317 39.100,12.737 C39.100,11.619 39.083,11.609 37.871,11.609 C26.295,11.606 14.719,11.605 3.144,11.606 C1.914,11.606 1.903,11.616 1.902,12.837 C1.899,23.343 1.899,33.850 1.902,44.357 C1.902,45.660 1.911,45.667 3.305,45.668 ZM39.101,3.079 C39.097,1.840 39.089,1.836 37.752,1.835 C32.002,1.833 26.251,1.834 20.501,1.835 C14.712,1.835 8.924,1.833 3.135,1.837 C1.929,1.837 1.909,1.854 1.903,2.976 C1.893,4.860 1.928,6.745 1.888,8.628 C1.870,9.434 2.084,9.789 3.025,9.787 C14.678,9.761 26.330,9.761 37.983,9.786 C38.927,9.789 39.133,9.424 39.115,8.623 C39.075,6.775 39.108,4.927 39.101,3.079 ZM32.399,8.340 C30.893,8.334 29.593,7.226 29.673,5.864 C29.756,4.448 30.801,3.254 32.445,3.271 C34.012,3.286 35.101,4.370 35.144,5.804 C35.180,7.004 34.305,8.423 32.399,8.340 ZM25.569,6.704 C25.202,6.621 24.728,6.178 24.665,5.836 C24.559,5.263 25.026,4.948 25.963,4.970 C26.106,5.162 26.523,5.479 26.563,5.834 C26.626,6.403 26.150,6.835 25.569,6.704 ZM22.119,6.683 C21.791,6.654 21.303,6.141 21.257,5.797 C21.181,5.221 21.687,4.849 22.289,4.994 C22.674,5.086 22.988,5.449 23.334,5.691 C23.329,5.819 23.324,5.949 23.320,6.077 C22.918,6.299 22.497,6.716 22.119,6.683 ZM17.825,5.890 C17.778,5.355 18.099,5.015 18.687,4.967 C19.315,4.915 19.679,5.196 19.847,6.022 C19.596,6.215 19.290,6.615 18.904,6.707 C18.319,6.845 17.877,6.474 17.825,5.890 ZM15.230,6.889 C14.953,6.532 14.512,6.202 14.441,5.811 C14.350,5.305 14.772,4.977 15.359,4.962 C15.938,4.948 16.397,5.227 16.341,5.747 C16.298,6.143 15.884,6.503 15.635,6.879 C15.500,6.882 15.365,6.886 15.230,6.889 ZM10.502,6.768 C9.861,6.770 9.220,6.768 8.579,6.768 C8.579,6.769 8.579,6.770 8.579,6.771 C7.976,6.771 7.372,6.762 6.769,6.773 C6.119,6.785 5.796,6.508 5.785,5.869 C5.773,5.241 6.035,4.935 6.719,4.945 C7.963,4.964 9.208,4.958 10.452,4.946 C11.049,4.940 11.373,5.165 11.379,5.767 C11.385,6.352 11.206,6.765 10.502,6.768 ZM20.557,15.483 C28.823,15.523 35.108,21.638 35.155,29.394 C35.205,37.477 28.567,43.388 20.513,43.517 C12.326,43.359 5.886,37.470 5.855,29.517 C5.824,21.643 12.255,15.442 20.557,15.483 ZM20.398,41.563 C27.397,41.599 32.981,35.871 33.092,29.610 C33.211,22.899 26.922,17.407 20.551,17.397 C13.589,17.386 7.680,23.154 7.994,29.408 C7.620,35.859 13.637,41.528 20.398,41.563 ZM11.293,29.555 C11.421,29.515 11.569,29.541 11.708,29.541 C13.052,29.540 14.397,29.540 15.742,29.540 C15.969,29.540 16.195,29.540 16.466,29.540 C15.911,28.875 15.316,28.328 14.928,27.652 C14.529,26.957 14.318,26.140 14.049,25.367 C13.786,24.610 13.430,23.878 13.308,23.077 C13.365,23.029 13.422,22.981 13.480,22.933 C13.684,23.078 13.915,23.195 14.089,23.373 C15.051,24.357 15.997,25.356 16.951,26.348 C17.127,26.531 17.313,26.703 17.571,26.863 C17.342,25.559 17.552,24.374 18.150,23.240 C18.704,22.189 19.052,21.019 19.661,20.000 C19.759,20.025 19.858,20.050 19.956,20.076 C20.050,21.017 19.996,21.970 20.001,22.917 C20.007,23.874 20.002,24.831 20.002,25.819 C20.702,25.206 21.257,24.585 21.928,24.170 C22.596,23.757 23.368,23.508 24.118,23.266 C24.836,23.034 25.492,22.451 26.301,22.647 C26.334,22.711 26.366,22.774 26.399,22.837 C25.104,24.195 23.809,25.552 22.514,26.910 C22.543,26.951 22.572,26.991 22.600,27.032 C22.710,27.021 22.821,27.021 22.928,26.997 C23.719,26.818 24.492,26.862 25.236,27.212 C26.356,27.737 27.478,28.257 28.586,28.806 C28.758,28.892 28.863,29.124 28.999,29.289 C28.802,29.372 28.607,29.523 28.408,29.527 C27.204,29.550 25.998,29.539 24.793,29.539 C24.404,29.540 24.016,29.539 23.637,29.539 C23.628,29.692 23.609,29.763 23.625,29.774 C24.658,30.455 25.249,31.456 25.619,32.651 C25.926,33.640 26.316,34.601 26.646,35.582 C26.696,35.729 26.623,35.920 26.607,36.091 C26.448,36.035 26.246,36.026 26.138,35.915 C25.093,34.847 24.065,33.761 23.031,32.682 C22.858,32.502 22.675,32.334 22.420,32.184 C22.908,33.703 22.298,34.968 21.709,36.240 C21.396,36.915 21.124,37.612 20.799,38.280 C20.663,38.560 20.388,39.031 20.264,39.002 C19.843,38.904 20.040,38.447 20.035,38.142 C20.015,36.760 20.028,35.377 20.025,33.994 C20.025,33.758 20.006,33.523 19.996,33.288 C19.943,33.262 19.891,33.236 19.838,33.210 C19.136,34.624 17.856,35.118 16.551,35.589 C15.662,35.911 14.788,36.277 13.917,36.619 C13.593,36.181 13.898,35.984 14.096,35.775 C15.075,34.740 16.062,33.714 17.045,32.684 C17.205,32.516 17.356,32.338 17.607,32.058 C17.324,32.079 17.153,32.061 17.000,32.109 C16.246,32.344 15.523,32.208 14.833,31.889 C13.689,31.362 12.561,30.798 11.427,30.249 C11.343,30.209 11.240,30.184 11.183,30.117 C11.099,30.019 10.985,29.879 11.001,29.777 C11.016,29.686 11.179,29.590 11.293,29.555 Z" class="cls-1"/>
</svg>
