<svg xmlns="http://www.w3.org/2000/svg" xmlns:xlink="http://www.w3.org/1999/xlink" preserveAspectRatio="xMidYMid" width="42" height="47" viewBox="0 0 42 47">
  <defs>
    <style>
      .cls-1 {
        fill: #000;
        fill-rule: evenodd;
      }
    </style>
  </defs>
  <path d="M42.000,9.097 L42.000,11.908 L41.721,12.135 C40.508,13.123 39.048,13.645 37.500,13.645 C35.251,13.645 33.141,12.494 31.894,10.613 L10.106,10.613 C8.859,12.494 6.749,13.645 4.500,13.645 C2.952,13.645 1.492,13.123 0.279,12.135 L-0.000,11.908 L-0.000,9.097 L3.286,9.097 L4.411,6.823 L3.286,4.548 L-0.000,4.548 L-0.000,1.738 L0.279,1.510 C1.492,0.522 2.952,-0.000 4.500,-0.000 C6.749,-0.000 8.859,1.151 10.106,3.032 L31.893,3.032 C33.140,1.151 35.250,-0.000 37.499,-0.000 C39.047,-0.000 40.508,0.522 41.720,1.510 L41.999,1.738 L41.999,4.548 L38.714,4.548 L37.589,6.823 L38.714,9.097 L42.000,9.097 ZM35.911,6.823 L37.786,3.032 L40.499,3.032 L40.499,2.478 C39.615,1.848 38.585,1.516 37.499,1.516 C35.636,1.516 33.896,2.533 32.958,4.170 L32.741,4.548 L9.259,4.548 L9.042,4.170 C8.104,2.533 6.363,1.516 4.500,1.516 C3.414,1.516 2.384,1.848 1.500,2.478 L1.500,3.032 L4.213,3.032 L6.088,6.823 L4.213,10.613 L1.500,10.613 L1.500,11.168 C2.384,11.798 3.414,12.129 4.500,12.129 C6.363,12.129 8.104,11.112 9.042,9.475 L9.259,9.097 L32.741,9.097 L32.957,9.475 C33.896,11.112 35.636,12.129 37.499,12.129 C38.585,12.129 39.615,11.798 40.499,11.168 L40.499,10.613 L37.786,10.613 L35.911,6.823 ZM7.849,22.299 L6.251,19.814 L11.354,14.657 L13.810,16.273 C14.760,15.747 15.767,15.327 16.813,15.020 L17.385,12.129 L24.615,12.129 L25.187,15.020 C26.241,15.330 27.257,15.754 28.214,16.287 L30.641,14.652 L35.753,19.819 L34.136,22.271 C34.663,23.241 35.083,24.266 35.389,25.332 L38.249,25.911 L38.249,33.219 L35.389,33.797 C35.082,34.862 34.663,35.888 34.135,36.858 L35.753,39.310 L30.640,44.477 L28.214,42.842 C27.264,43.370 26.259,43.792 25.215,44.101 L24.607,47.000 L17.391,47.000 L16.784,44.101 C15.749,43.794 14.752,43.377 13.810,42.857 L11.354,44.472 L6.251,39.315 L7.849,36.831 C7.333,35.879 6.921,34.871 6.619,33.825 L3.750,33.211 L3.750,25.917 L6.619,25.304 C6.922,24.258 7.333,23.251 7.849,22.299 ZM5.250,31.982 L7.831,32.535 L7.947,32.990 C8.261,34.216 8.740,35.388 9.373,36.473 L9.608,36.878 L8.171,39.112 L11.554,42.531 L13.764,41.079 L14.164,41.317 C15.238,41.956 16.398,42.441 17.611,42.759 L18.060,42.876 L18.607,45.484 L23.391,45.484 L23.939,42.877 L24.388,42.759 C25.612,42.439 26.781,41.947 27.863,41.300 L28.268,41.057 L30.450,42.527 L33.823,39.117 L32.369,36.912 L32.609,36.502 C33.256,35.398 33.744,34.205 34.061,32.957 L34.178,32.495 L36.749,31.975 L36.749,27.154 L34.178,26.635 L34.061,26.173 C33.744,24.925 33.255,23.732 32.609,22.628 L32.369,22.218 L33.822,20.013 L30.449,16.603 L28.268,18.073 L27.862,17.830 C26.771,17.175 25.590,16.682 24.355,16.362 L23.898,16.244 L23.384,13.645 L18.615,13.645 L18.099,16.243 L17.643,16.361 C16.417,16.679 15.246,17.166 14.164,17.811 L13.763,18.049 L11.554,16.597 L8.170,20.017 L9.607,22.251 L9.372,22.655 C8.740,23.740 8.260,24.912 7.946,26.139 L7.831,26.594 L5.250,27.146 L5.250,31.982 ZM8.250,30.322 L6.750,30.322 L6.750,28.806 L8.250,28.806 L8.250,30.322 ZM12.515,39.213 L11.454,40.285 L10.393,39.213 L11.454,38.141 L12.515,39.213 ZM21.000,19.710 C26.376,19.710 30.749,24.131 30.749,29.564 C30.749,34.998 26.376,39.419 21.000,39.419 C15.624,39.419 11.250,34.998 11.250,29.564 C11.250,24.131 15.624,19.710 21.000,19.710 ZM21.000,37.903 C25.548,37.903 29.249,34.162 29.249,29.564 C29.249,24.967 25.548,21.226 21.000,21.226 C16.451,21.226 12.750,24.967 12.750,29.564 C12.750,34.162 16.451,37.903 21.000,37.903 ZM21.000,24.258 C23.894,24.258 26.250,26.638 26.250,29.564 C26.250,32.491 23.894,34.871 21.000,34.871 C18.105,34.871 15.750,32.491 15.750,29.564 C15.750,26.638 18.105,24.258 21.000,24.258 ZM21.000,33.355 C23.067,33.355 24.750,31.655 24.750,29.564 C24.750,27.474 23.067,25.774 21.000,25.774 C18.932,25.774 17.250,27.474 17.250,29.564 C17.250,31.655 18.932,33.355 21.000,33.355 ZM21.750,43.968 L20.250,43.968 L20.250,42.451 L21.750,42.451 L21.750,43.968 ZM31.605,39.213 L30.545,40.285 L29.484,39.213 L30.545,38.141 L31.605,39.213 ZM29.484,19.916 L30.545,18.844 L31.606,19.916 L30.545,20.988 L29.484,19.916 ZM20.250,15.161 L21.750,15.161 L21.750,16.677 L20.250,16.677 L20.250,15.161 ZM10.394,19.916 L11.454,18.844 L12.515,19.916 L11.454,20.988 L10.394,19.916 ZM35.249,30.322 L33.749,30.322 L33.749,28.806 L35.249,28.806 L35.249,30.322 Z" class="cls-1"/>
</svg>
