<svg xmlns="http://www.w3.org/2000/svg" xmlns:xlink="http://www.w3.org/1999/xlink" preserveAspectRatio="xMidYMid" width="44" height="45" viewBox="0 0 44 45">
  <defs>
    <style>
      .cls-1 {
        fill: #000;
        fill-rule: evenodd;
      }
    </style>
  </defs>
  <path d="M43.166,41.792 C43.060,43.075 42.564,44.047 41.457,44.691 C41.258,44.807 41.043,44.898 40.836,45.000 C36.817,45.000 32.798,45.000 28.779,45.000 C28.445,44.821 28.086,44.679 27.784,44.457 C27.002,43.881 26.559,43.110 26.466,42.114 C26.192,39.164 25.890,36.217 25.593,33.269 C25.435,31.702 26.828,30.093 28.411,30.042 C28.949,30.025 29.488,30.039 30.083,30.039 C30.083,29.360 30.075,28.730 30.085,28.101 C30.095,27.468 30.052,26.823 30.157,26.204 C30.489,24.254 32.458,22.303 35.055,22.421 C37.180,22.518 39.183,24.238 39.469,26.409 C39.588,27.309 39.507,28.235 39.515,29.149 C39.518,29.426 39.516,29.703 39.516,30.037 C40.019,30.037 40.485,30.062 40.947,30.033 C42.470,29.935 44.220,31.543 44.013,33.345 C43.689,36.156 43.401,38.972 43.166,41.792 ZM37.663,27.086 C37.663,26.969 37.663,26.850 37.652,26.733 C37.542,25.529 36.802,24.588 35.724,24.391 C35.213,24.298 34.669,24.284 34.154,24.348 C32.818,24.514 31.959,25.529 31.942,26.887 C31.933,27.639 31.941,28.390 31.941,29.142 C31.941,29.431 31.941,29.719 31.941,30.013 C33.873,30.013 35.742,30.013 37.664,30.013 C37.664,29.001 37.664,28.043 37.663,27.086 ZM40.933,31.900 C38.895,31.898 36.857,31.899 34.819,31.899 C32.840,31.899 30.861,31.899 28.882,31.899 C27.633,31.899 27.344,32.219 27.470,33.464 C27.475,33.508 27.482,33.552 27.486,33.596 C27.767,36.368 28.056,39.139 28.325,41.911 C28.427,42.963 28.629,43.173 29.694,43.171 C33.184,43.164 36.673,43.156 40.162,43.147 C40.902,43.145 41.188,42.880 41.262,42.132 C41.557,39.169 41.851,36.207 42.146,33.244 C42.240,32.295 41.887,31.901 40.933,31.900 ZM34.772,40.575 C34.271,40.561 33.903,40.193 33.877,39.673 C33.868,39.497 33.874,39.319 33.874,39.143 C33.873,38.966 33.874,38.789 33.874,38.612 C33.875,38.612 33.875,38.612 33.876,38.612 C33.876,38.243 33.864,37.874 33.879,37.506 C33.900,36.996 34.292,36.613 34.778,36.602 C35.263,36.592 35.698,36.964 35.716,37.470 C35.742,38.220 35.743,38.974 35.717,39.724 C35.699,40.228 35.265,40.588 34.772,40.575 ZM16.757,30.191 C16.701,30.260 16.645,30.328 16.588,30.395 C16.071,30.998 15.523,31.011 14.982,30.426 C13.552,28.884 12.124,27.339 10.695,25.795 C10.166,25.223 9.631,24.656 9.105,24.080 C8.673,23.607 8.655,23.041 9.046,22.662 C9.447,22.274 10.029,22.328 10.477,22.812 C12.078,24.536 13.676,26.265 15.275,27.992 C15.414,28.142 15.556,28.290 15.739,28.483 C16.783,27.214 17.792,25.989 18.799,24.763 C21.273,21.749 23.743,18.732 26.230,15.730 C26.411,15.511 26.700,15.324 26.973,15.252 C27.359,15.151 27.695,15.349 27.885,15.712 C28.082,16.087 28.031,16.455 27.763,16.783 C26.869,17.877 25.973,18.969 25.076,20.060 C22.304,23.438 19.530,26.814 16.757,30.191 ZM36.598,21.361 C36.043,21.356 35.675,20.943 35.675,20.294 C35.671,16.855 35.673,13.417 35.672,9.979 C35.672,9.155 35.657,9.156 34.851,9.304 C30.761,10.054 27.061,9.074 23.688,6.711 C21.986,5.519 20.581,4.020 19.360,2.341 C19.299,2.257 19.243,2.171 19.179,2.090 C18.867,1.691 18.677,1.708 18.352,2.098 C17.591,3.014 16.874,3.977 16.032,4.811 C13.314,7.504 10.067,9.153 6.244,9.546 C4.972,9.677 3.696,9.635 2.452,9.257 C2.037,9.130 1.859,9.260 1.860,9.687 C1.872,13.996 1.814,18.306 1.920,22.612 C2.060,28.291 4.381,33.009 8.516,36.833 C11.352,39.454 14.638,41.325 18.277,42.566 C18.569,42.666 18.964,42.680 19.242,42.565 C20.769,41.931 22.269,41.230 23.793,40.589 C24.091,40.464 24.505,40.383 24.775,40.498 C25.024,40.604 25.241,40.979 25.308,41.273 C25.396,41.659 25.146,41.986 24.785,42.159 C23.544,42.755 22.319,43.396 21.045,43.913 C18.793,44.826 18.693,44.806 16.430,43.892 C11.979,42.094 8.059,39.522 4.963,35.788 C2.243,32.508 0.644,28.735 0.169,24.485 C0.118,24.033 0.056,23.582 -0.000,23.130 C-0.000,18.467 -0.000,13.804 -0.000,9.141 C0.039,9.067 0.085,8.995 0.115,8.917 C0.599,7.633 1.696,7.088 3.008,7.466 C5.140,8.080 7.225,7.786 9.263,7.055 C12.305,5.964 14.732,4.004 16.547,1.365 C17.928,-0.644 19.926,-0.250 20.978,1.335 C22.480,3.598 24.474,5.390 26.972,6.526 C29.445,7.651 32.020,7.999 34.692,7.402 C36.196,7.066 37.534,8.089 37.543,9.650 C37.564,13.206 37.553,16.762 37.547,20.318 C37.545,20.963 37.159,21.366 36.598,21.361 Z" class="cls-1"/>
</svg>
