<svg xmlns="http://www.w3.org/2000/svg" xmlns:xlink="http://www.w3.org/1999/xlink" preserveAspectRatio="xMidYMid" width="46" height="47" viewBox="0 0 46 47">
  <defs>
    <style>
      .cls-1 {
        fill: #000;
        fill-rule: evenodd;
      }
    </style>
  </defs>
  <path d="M45.074,29.243 C42.721,29.551 40.365,29.840 38.009,30.130 C35.111,30.488 32.211,30.830 29.315,31.198 C28.721,31.274 28.339,31.073 28.038,30.574 C26.465,27.962 24.876,25.359 23.293,22.753 C23.207,22.612 23.117,22.474 23.000,22.288 C22.825,22.570 22.686,22.790 22.551,23.013 C21.032,25.513 19.505,28.008 18.002,30.518 C17.672,31.068 17.266,31.279 16.615,31.195 C12.913,30.719 9.208,30.269 5.505,29.810 C3.986,29.622 2.466,29.445 0.949,29.243 C0.055,29.124 -0.279,28.320 0.264,27.601 C2.218,25.016 4.184,22.440 6.138,19.855 C6.424,19.475 6.797,19.392 7.245,19.392 C12.278,19.399 17.311,19.396 22.345,19.396 C27.751,19.396 33.157,19.406 38.563,19.385 C39.259,19.382 39.704,19.606 40.121,20.170 C41.916,22.602 43.764,24.996 45.593,27.403 C45.649,27.478 45.706,27.551 45.760,27.627 C46.264,28.341 45.944,29.129 45.074,29.243 ZM20.877,21.352 C16.519,21.352 12.160,21.348 7.801,21.364 C7.624,21.365 7.391,21.498 7.280,21.642 C5.889,23.446 4.515,25.263 3.139,27.078 C3.048,27.197 2.967,27.324 2.845,27.501 C3.053,27.531 3.202,27.556 3.352,27.574 C5.225,27.808 7.099,28.042 8.973,28.273 C11.327,28.565 13.682,28.851 16.035,29.150 C16.349,29.189 16.541,29.122 16.716,28.831 C18.130,26.469 19.564,24.119 20.991,21.764 C21.060,21.650 21.116,21.528 21.195,21.376 C21.057,21.365 20.967,21.352 20.877,21.352 ZM43.015,27.281 C41.574,25.380 40.137,23.476 38.679,21.588 C38.574,21.451 38.317,21.362 38.130,21.362 C33.836,21.348 29.542,21.351 25.247,21.351 C25.114,21.351 24.981,21.365 24.796,21.375 C24.902,21.565 24.978,21.712 25.064,21.853 C26.428,24.101 27.809,26.338 29.143,28.602 C29.428,29.086 29.721,29.193 30.259,29.122 C33.414,28.707 36.574,28.330 39.732,27.940 C40.843,27.802 41.954,27.661 43.136,27.513 C43.071,27.387 43.051,27.329 43.015,27.281 ZM28.320,12.198 C26.808,13.696 25.296,15.194 23.785,16.693 C23.286,17.187 22.719,17.194 22.223,16.704 C20.060,14.561 17.895,12.420 15.742,10.268 C15.564,10.090 15.405,9.849 15.346,9.611 C15.240,9.180 15.425,8.822 15.818,8.593 C16.197,8.372 16.667,8.434 17.022,8.775 C17.693,9.422 18.352,10.081 19.014,10.737 C19.974,11.688 20.933,12.640 22.002,13.701 C22.002,13.412 22.002,13.264 22.002,13.116 C22.003,9.148 22.006,5.179 22.000,1.211 C22.000,0.705 22.132,0.285 22.635,0.080 C23.318,-0.197 23.977,0.283 23.983,1.074 C23.997,2.649 23.989,4.224 23.990,5.799 C23.990,8.284 23.989,10.770 23.990,13.256 C23.990,13.358 24.002,13.460 24.009,13.562 C24.072,13.612 24.135,13.661 24.197,13.711 C24.276,13.561 24.324,13.381 24.439,13.266 C25.924,11.785 27.416,10.312 28.912,8.841 C29.374,8.387 29.960,8.347 30.372,8.725 C30.805,9.122 30.817,9.711 30.372,10.164 C29.697,10.851 29.004,11.521 28.320,12.198 ZM7.026,31.360 C7.630,31.372 7.996,31.810 7.996,32.537 C7.997,35.300 8.002,38.064 7.987,40.828 C7.985,41.184 8.082,41.325 8.447,41.414 C12.825,42.479 17.199,43.565 21.574,44.645 C21.693,44.675 21.814,44.695 22.004,44.734 C22.004,43.261 22.004,41.858 22.004,40.455 C22.003,36.317 22.002,32.179 22.002,28.041 C22.002,27.871 21.993,27.700 22.015,27.532 C22.086,27.001 22.530,26.629 23.047,26.652 C23.549,26.675 23.958,27.052 23.977,27.577 C24.004,28.333 23.990,29.090 23.990,29.847 C23.990,34.602 23.989,39.358 23.989,44.113 C23.989,44.297 23.989,44.480 23.989,44.713 C24.150,44.696 24.270,44.697 24.382,44.669 C28.801,43.578 33.219,42.480 37.642,41.401 C37.975,41.319 38.051,41.185 38.050,40.871 C38.038,38.092 38.041,35.313 38.043,32.533 C38.043,31.843 38.362,31.422 38.917,31.362 C39.570,31.292 40.021,31.714 40.026,32.429 C40.035,33.587 40.029,34.745 40.029,35.903 C40.029,37.863 40.032,39.824 40.027,41.785 C40.026,42.633 39.838,42.870 39.003,43.077 C33.767,44.376 28.531,45.674 23.293,46.965 C23.120,47.008 22.917,47.009 22.744,46.966 C17.476,45.666 12.211,44.359 6.945,43.052 C6.238,42.876 6.007,42.599 6.006,41.881 C6.002,38.762 6.002,35.643 6.006,32.524 C6.007,31.762 6.381,31.348 7.026,31.360 Z" class="cls-1"/>
</svg>
