<svg xmlns="http://www.w3.org/2000/svg" xmlns:xlink="http://www.w3.org/1999/xlink" preserveAspectRatio="xMidYMid" width="45" height="43" viewBox="0 0 45 43">
  <defs>
    <style>
      .cls-1 {
        fill: #000;
        fill-rule: evenodd;
      }
    </style>
  </defs>
  <path d="M44.943,36.487 C44.933,37.118 44.948,37.750 44.938,38.382 C44.928,39.084 44.576,39.425 43.864,39.432 C43.157,39.438 42.450,39.446 41.744,39.427 C41.440,39.419 41.291,39.500 41.179,39.811 C40.446,41.855 38.478,43.190 36.394,42.963 C34.461,42.753 33.188,41.606 32.470,39.837 C32.354,39.552 32.238,39.438 31.915,39.439 C26.967,39.451 22.019,39.450 17.071,39.441 C16.776,39.440 16.643,39.519 16.538,39.808 C15.851,41.703 14.079,42.992 12.196,42.999 C10.294,43.005 8.514,41.708 7.808,39.800 C7.767,39.691 7.724,39.583 7.672,39.449 C7.083,39.449 6.495,39.452 5.908,39.448 C5.180,39.443 4.826,39.093 4.820,38.364 C4.814,37.485 4.819,36.606 4.819,35.699 C4.674,35.684 4.563,35.669 4.451,35.661 C3.895,35.625 3.516,35.298 3.507,34.752 C3.485,33.490 3.485,32.226 3.508,30.963 C3.517,30.415 3.934,30.038 4.439,30.036 C4.936,30.034 5.350,30.413 5.371,30.962 C5.399,31.711 5.381,32.460 5.382,33.210 C5.382,33.384 5.382,33.559 5.382,33.767 C13.537,33.767 21.658,33.767 29.823,33.767 C29.823,28.162 29.823,22.550 29.823,16.869 C29.557,16.869 29.284,16.874 29.011,16.868 C28.388,16.855 27.957,16.455 27.969,15.909 C27.981,15.382 28.400,15.004 29.011,15.003 C31.572,14.998 34.133,14.999 36.695,15.004 C37.298,15.005 37.535,15.208 37.776,15.780 C38.735,18.051 39.701,20.318 40.681,22.580 C40.762,22.766 40.941,22.934 41.114,23.052 C41.916,23.599 42.734,24.122 43.543,24.658 C44.474,25.272 44.940,26.139 44.940,27.253 C44.942,29.529 44.940,31.806 44.944,34.083 C44.944,34.256 44.981,34.429 45.000,34.602 C45.000,34.690 45.000,34.778 45.000,34.866 C44.980,35.407 44.952,35.947 44.943,36.487 ZM6.702,35.674 C6.702,36.229 6.691,36.741 6.710,37.252 C6.714,37.366 6.825,37.573 6.885,37.572 C7.146,37.569 7.559,37.591 7.639,37.448 C7.956,36.887 8.168,36.267 8.417,35.674 C7.880,35.674 7.325,35.674 6.702,35.674 ZM12.037,35.661 C10.466,35.712 9.409,36.833 9.455,38.399 C9.508,40.183 10.566,41.184 12.346,41.134 C13.945,41.089 14.992,39.899 14.927,38.201 C14.868,36.646 13.686,35.607 12.037,35.661 ZM41.307,37.369 C41.342,37.447 41.443,37.546 41.516,37.549 C42.024,37.564 42.532,37.557 43.033,37.557 C43.033,36.887 43.033,36.281 43.033,35.666 C42.188,35.666 41.381,35.666 40.577,35.666 C40.826,36.253 41.059,36.814 41.307,37.369 ZM36.710,41.135 C38.419,41.169 39.504,40.151 39.542,38.475 C39.580,36.804 38.537,35.689 36.907,35.660 C35.280,35.630 34.120,36.676 34.075,38.213 C34.026,39.946 35.068,41.102 36.710,41.135 ZM15.912,35.666 C16.151,36.177 16.430,36.634 16.577,37.129 C16.695,37.526 16.877,37.604 17.254,37.602 C19.566,37.585 21.878,37.593 24.190,37.593 C26.752,37.593 29.315,37.595 31.877,37.588 C32.018,37.587 32.244,37.547 32.287,37.458 C32.566,36.873 32.805,36.270 33.060,35.666 C27.357,35.666 21.645,35.666 15.912,35.666 ZM42.566,26.243 C41.613,25.630 40.659,25.020 39.734,24.368 C39.463,24.178 39.213,23.885 39.080,23.583 C38.154,21.474 37.254,19.354 36.364,17.230 C36.249,16.954 36.115,16.859 35.816,16.863 C34.594,16.882 33.372,16.870 32.150,16.872 C32.022,16.873 31.895,16.889 31.766,16.897 C31.766,18.785 31.766,20.641 31.766,22.531 C33.209,22.531 34.621,22.530 36.032,22.532 C36.755,22.532 37.185,22.873 37.196,23.449 C37.206,24.022 36.768,24.385 36.057,24.387 C35.085,24.389 34.113,24.388 33.141,24.388 C32.689,24.388 32.237,24.388 31.762,24.388 C31.762,27.546 31.762,30.650 31.762,33.778 C35.524,33.778 39.258,33.778 43.049,33.778 C43.057,33.617 43.070,33.488 43.070,33.358 C43.071,31.302 43.061,29.246 43.077,27.189 C43.080,26.756 42.920,26.471 42.566,26.243 ZM19.044,18.718 C13.730,18.958 9.442,15.016 9.238,9.704 C9.034,4.398 12.948,0.233 18.355,0.003 C23.476,-0.108 27.749,3.516 28.001,8.995 C28.242,14.224 24.309,18.480 19.044,18.718 ZM18.632,1.725 C14.588,1.712 10.995,5.242 10.974,9.251 C10.951,13.418 14.449,16.971 18.590,16.986 C22.691,17.002 26.259,13.480 26.273,9.403 C26.287,5.290 22.752,1.738 18.632,1.725 ZM21.962,7.351 C21.119,8.193 20.277,9.036 19.432,9.875 C18.853,10.449 18.382,10.443 17.799,9.860 C17.038,9.102 16.277,8.345 15.519,7.585 C15.043,7.106 14.996,6.551 15.392,6.149 C15.792,5.743 16.351,5.780 16.827,6.256 C17.409,6.837 17.984,7.425 18.607,8.055 C19.597,7.069 20.533,6.136 21.469,5.203 C21.667,5.006 21.858,4.801 22.065,4.613 C22.462,4.253 23.024,4.253 23.379,4.602 C23.740,4.958 23.762,5.519 23.393,5.912 C22.930,6.404 22.440,6.873 21.962,7.351 ZM8.188,16.862 C7.278,16.881 6.367,16.867 5.374,16.867 C5.374,17.803 5.381,18.680 5.372,19.557 C5.365,20.178 5.047,20.560 4.529,20.606 C3.971,20.655 3.516,20.288 3.505,19.701 C3.481,18.439 3.483,17.177 3.504,15.915 C3.513,15.364 3.883,15.016 4.441,15.009 C5.691,14.993 6.942,14.993 8.193,15.009 C8.762,15.017 9.121,15.388 9.130,15.909 C9.139,16.443 8.762,16.849 8.188,16.862 ZM6.575,22.484 C6.575,22.486 6.575,22.487 6.575,22.488 C8.400,22.488 10.225,22.492 12.050,22.484 C12.497,22.483 12.869,22.596 13.076,23.021 C13.400,23.686 12.907,24.355 12.084,24.357 C10.392,24.363 8.699,24.360 7.006,24.359 C5.034,24.359 3.062,24.361 1.090,24.356 C0.427,24.355 0.022,24.012 0.001,23.458 C-0.019,22.900 0.355,22.506 0.967,22.494 C1.880,22.476 2.792,22.485 3.705,22.485 C4.662,22.484 5.618,22.484 6.575,22.484 ZM3.061,26.242 C5.447,26.240 7.832,26.240 10.217,26.242 C10.731,26.243 11.096,26.474 11.230,26.868 C11.360,27.250 11.236,27.723 10.891,27.920 C10.686,28.036 10.422,28.095 10.183,28.099 C8.976,28.116 7.769,28.106 6.562,28.107 C5.399,28.107 4.235,28.109 3.072,28.105 C2.289,28.103 1.883,27.784 1.881,27.184 C1.879,26.582 2.300,26.243 3.061,26.242 Z" class="cls-1"/>
</svg>
