<svg xmlns="http://www.w3.org/2000/svg" xmlns:xlink="http://www.w3.org/1999/xlink" preserveAspectRatio="xMidYMid" width="23" height="24" viewBox="0 0 23 24">
  <defs>
    <style>
      .cls-1 {
        fill: #282828;
        fill-rule: evenodd;
      }
    </style>
  </defs>
  <path d="M22.479,9.449 C22.077,9.858 21.681,10.282 21.232,10.636 C20.010,11.597 20.321,13.248 21.135,14.107 C21.488,14.481 21.868,14.830 22.230,15.195 C22.827,15.797 22.913,16.457 22.469,17.184 C21.984,17.975 21.483,18.758 20.981,19.538 C20.583,20.157 19.952,20.406 19.230,20.212 C18.618,20.048 18.017,19.843 17.408,19.667 C16.194,19.316 15.061,19.858 14.616,21.033 C14.415,21.566 14.286,22.127 14.125,22.675 C13.857,23.590 13.303,24.008 12.338,24.000 C11.465,23.992 10.591,23.979 9.718,23.953 C8.892,23.928 8.346,23.481 8.156,22.678 C8.029,22.141 7.926,21.598 7.810,21.058 C7.521,19.717 6.335,18.973 4.992,19.301 C4.491,19.423 3.999,19.579 3.500,19.706 C2.564,19.946 1.845,19.641 1.405,18.809 C0.999,18.042 0.602,17.269 0.212,16.493 C-0.150,15.773 -0.049,15.129 0.529,14.544 C0.988,14.080 1.466,13.634 1.941,13.185 C2.836,12.339 2.919,11.248 2.108,10.290 C1.688,9.793 1.198,9.354 0.738,8.891 C0.113,8.264 0.024,7.619 0.487,6.859 C0.980,6.049 1.489,5.249 1.997,4.448 C2.286,3.993 2.712,3.782 3.506,3.795 C3.932,3.920 4.622,4.052 5.253,4.321 C6.533,4.867 8.072,4.224 8.475,2.633 C8.596,2.156 8.757,1.688 8.910,1.220 C9.178,0.401 9.718,0.002 10.597,-0.000 C11.490,-0.002 12.384,0.007 13.277,0.037 C14.135,0.065 14.673,0.528 14.862,1.364 C14.979,1.884 15.088,2.404 15.200,2.925 C15.495,4.295 16.698,5.036 18.064,4.683 C18.563,4.554 19.054,4.396 19.555,4.277 C20.473,4.060 21.159,4.365 21.595,5.183 C22.004,5.949 22.402,6.721 22.792,7.497 C23.149,8.209 23.044,8.875 22.479,9.449 ZM20.028,6.036 C18.397,6.587 16.832,6.900 15.275,5.955 C13.708,5.004 13.400,3.420 13.152,1.793 C12.902,1.793 12.725,1.794 12.548,1.792 C11.973,1.787 11.246,1.566 10.864,1.832 C10.471,2.106 10.413,2.856 10.210,3.398 C10.182,3.472 10.159,3.547 10.130,3.621 C9.312,5.676 7.240,6.701 5.096,6.108 C4.676,5.991 4.268,5.829 3.842,5.740 C3.694,5.709 3.436,5.780 3.359,5.894 C2.961,6.473 2.605,7.081 2.199,7.737 C2.594,8.103 2.973,8.424 3.316,8.778 C5.025,10.540 4.948,13.059 3.146,14.724 C2.756,15.085 2.374,15.454 1.988,15.819 C2.139,16.108 2.262,16.356 2.396,16.597 C2.643,17.044 2.798,17.702 3.174,17.872 C3.546,18.039 4.145,17.720 4.641,17.600 C7.015,17.023 9.240,18.418 9.750,20.808 C9.825,21.155 9.854,21.518 9.976,21.847 C10.039,22.018 10.253,22.241 10.412,22.252 C11.082,22.297 11.757,22.271 12.485,22.271 C12.605,21.829 12.716,21.370 12.854,20.921 C13.326,19.392 14.304,18.362 15.882,17.951 C16.842,17.701 17.768,17.899 18.687,18.196 C19.616,18.497 19.620,18.484 20.121,17.655 C20.885,16.391 20.874,16.401 19.864,15.332 C18.361,13.741 18.063,11.016 20.011,9.362 C20.428,9.008 20.808,8.611 21.208,8.230 C20.796,7.465 20.417,6.760 20.028,6.036 ZM11.477,16.666 C8.950,16.663 6.893,14.603 6.909,12.091 C6.925,9.577 8.987,7.557 11.529,7.566 C14.067,7.575 16.091,9.609 16.085,12.145 C16.079,14.671 14.042,16.670 11.477,16.666 ZM11.526,9.427 C10.018,9.444 8.787,10.668 8.790,12.146 C8.793,13.617 10.053,14.861 11.535,14.857 C13.013,14.853 14.262,13.604 14.261,12.133 C14.259,10.634 13.022,9.409 11.526,9.427 Z" class="cls-1"/>
</svg>
